<?xml version="1.0" standalone="no"?>
<!DOCTYPE svg PUBLIC "-//W3C//DTD SVG 20010904//EN"
 "http://www.w3.org/TR/2001/REC-SVG-20010904/DTD/svg10.dtd">
<svg version="1.0" xmlns="http://www.w3.org/2000/svg"
 width="1500.000000pt" height="750.000000pt" viewBox="0 0 1500.000000 750.000000"
 preserveAspectRatio="xMidYMid meet">

<g transform="translate(0.000000,750.000000) scale(0.100000,-0.100000)"
fill="#fff" stroke="none">
<path d="M1128 4466 l-3 -1561 -28 -60 c-37 -77 -59 -100 -132 -138 -57 -29
-68 -31 -202 -35 l-143 -5 0 -33 0 -34 775 0 775 0 0 34 0 34 -132 4 c-122 4
-138 6 -193 34 -91 44 -119 98 -145 274 -5 39 -9 672 -10 1556 l0 1490 -280 1
-280 0 -2 -1561z"/>
<path d="M3080 5398 l0 -628 -560 0 -560 0 0 -280 0 -280 560 0 560 0 0 -805
0 -805 285 0 285 0 0 805 0 805 555 0 555 0 0 280 0 280 -555 0 -555 0 0 625
c0 492 -3 625 -12 627 -7 1 -136 2 -285 3 l-273 1 0 -628z"/>
<path d="M5875 4794 c-82 -9 -252 -47 -320 -71 -243 -88 -455 -276 -572 -507
-85 -168 -117 -329 -117 -586 1 -258 30 -397 121 -575 57 -111 97 -168 169
-244 137 -146 321 -247 562 -308 99 -25 122 -27 312 -27 192 0 211 1 300 27
210 59 342 131 524 288 4 4 -42 56 -104 116 -62 59 -138 134 -169 167 l-58 59
-39 -35 c-45 -41 -133 -86 -219 -114 -49 -16 -90 -19 -230 -19 -159 0 -175 2
-250 28 -96 33 -146 64 -234 149 -120 117 -185 293 -184 498 1 127 20 213 73
323 47 99 101 166 184 229 228 171 519 184 771 34 28 -16 59 -38 71 -48 20
-18 21 -18 85 49 35 36 89 92 119 123 30 30 72 75 93 99 l38 44 -33 34 c-41
42 -204 151 -278 186 -30 14 -102 38 -160 52 -87 23 -131 28 -260 30 -85 2
-173 1 -195 -1z"/>
<path d="M11015 4793 c-74 -6 -220 -46 -270 -74 -72 -41 -209 -179 -244 -246
-6 -13 -15 -23 -19 -23 -6 0 -38 163 -49 253 l-5 37 -229 0 -229 0 0 -1100 0
-1100 250 0 249 0 3 668 3 667 26 65 c57 142 128 225 242 283 207 106 460 101
640 -13 34 -22 65 -36 69 -32 4 4 37 66 74 137 36 72 84 163 106 204 21 41 37
80 34 87 -7 17 -119 91 -181 119 -111 50 -315 80 -470 68z"/>
<path d="M12795 4791 c-82 -13 -220 -50 -285 -77 -171 -69 -345 -207 -449
-354 -81 -115 -102 -156 -141 -268 -52 -153 -70 -263 -70 -440 0 -177 19 -300
71 -456 51 -151 150 -308 259 -409 86 -80 238 -174 340 -211 41 -15 86 -32
100 -37 25 -9 75 -20 210 -45 125 -23 344 -18 492 11 137 26 357 96 400 126
14 11 29 19 32 19 12 0 183 120 206 144 l25 27 -157 155 -156 155 -58 -39
c-33 -22 -75 -47 -94 -57 -110 -57 -386 -111 -505 -100 -103 9 -255 42 -311
66 -120 53 -236 163 -288 274 -27 56 -61 173 -53 181 3 3 401 5 884 5 l880 0
6 102 c15 227 -35 533 -110 681 -103 205 -273 373 -458 456 -101 45 -113 50
-127 50 -8 0 -50 10 -94 21 -67 18 -112 22 -289 25 -115 1 -232 -1 -260 -5z
m505 -464 c193 -73 315 -219 346 -416 l7 -41 -642 0 c-516 0 -641 3 -641 13 0
25 36 112 69 171 61 106 195 222 302 262 95 36 160 44 329 40 146 -4 173 -7
230 -29z"/>
<path d="M8020 4784 c-257 -47 -268 -51 -405 -121 -173 -89 -274 -179 -377
-335 -72 -108 -92 -152 -137 -298 -50 -162 -64 -411 -36 -616 17 -123 85 -347
123 -409 64 -101 79 -124 124 -178 26 -32 67 -74 90 -93 24 -20 52 -43 63 -52
79 -67 225 -132 395 -179 76 -20 126 -26 245 -30 154 -5 199 0 318 35 158 48
261 106 357 202 68 69 80 84 104 138 29 65 42 70 50 20 6 -35 24 -262 26 -315
0 -10 55 -13 240 -13 l240 0 0 1100 0 1100 -243 0 -244 0 -6 -147 c-4 -82 -11
-161 -15 -177 l-8 -29 -46 70 c-56 84 -87 116 -174 178 -152 109 -280 147
-509 151 -82 1 -161 0 -175 -2z m434 -463 c126 -37 284 -150 338 -240 12 -20
29 -45 38 -56 50 -59 107 -303 97 -417 -15 -180 -43 -273 -113 -383 -154 -240
-452 -347 -752 -270 -149 37 -233 85 -324 184 -135 145 -198 338 -184 558 23
337 228 573 557 643 72 15 264 4 343 -19z"/>
</g>
</svg>
