<svg xmlns="http://www.w3.org/2000/svg" width="638.939" height="443.19"><defs><clipPath id="a"><path d="M992.795 351.65s-1.078 15.171 9.174 19.767c0 0-12.212 9.865-25.479 1.629 0 0 8.274-1.624 4.746-19.917Z" transform="translate(-976.49 -351.65)" fill="#b57e6f"/></clipPath><clipPath id="b"><path d="M1011.058 710.832v-.089c-3.267-18.881-18.484-104.091 12.049-108.487 5.689-.817 24.266 5.819 22.362 40.753-1.54 28.092-10.108 48.658-11.536 65.686-.037 14 5.9 21.083 7.494 33.132 2.212 16.8-2.7 44.574-6.192 57.711-.131 1.325-.126 5.982 1.433 8.264s2.333 2.427 2.058 4.993h-17.961a4.5 4.5 0 0 1 3.052-3.883c2.907-.971 6.482-7.784 5.745-10.7-4.391-16.7-11.872-52.265-12.847-57.636Z" transform="translate(-1004.381 -602.193)" fill="#b57e6f"/></clipPath><clipPath id="c"><path d="M936.939 709.75c-1.451 13.934 3.733 21.55 4.1 33.7.467 16.085-6.9 41.065-11.96 54.2v.028a12.4 12.4 0 0 0 .2 7.14c1.279 3.267 2.333 8.115-2.142 8.115H902.5s-.569-3.192 5.964-4.093c6.3-.868 14.466-4.456 14.4-10.607-2.445-16.575-5.861-52.9-6.286-58.411-.495-6.4-2.03-23.361-2.483-28.764a.042.042 0 0 1 0-.023c-1.811-16.734-11.279-106.014 18.358-108.6 5.73-.495 23.9 7.186 19.912 41.952-3.029 26.389-11.909 45.732-14.933 62.041-.176 1.199-.39 2.324-.493 3.322Z" transform="translate(-902.483 -602.413)" fill="#b57e6f"/></clipPath></defs><g transform="translate(0 1)" style="isolation:isolate"><g transform="translate(83.036 40.715)" opacity=".2"><g transform="translate(11.708 253.601)"><rect width="71.99" height="129.519" transform="translate(0 .205)" fill="none" stroke="#f1b104" stroke-linecap="round" stroke-linejoin="round" stroke-width="2"/><circle cx="3.346" cy="3.346" transform="translate(60.837 59.363)" fill="none" stroke="#f1b104" stroke-linecap="round" stroke-linejoin="round" stroke-width="2" r="3.346"/><circle cx="3.346" cy="3.346" transform="translate(80.913 59.363)" fill="none" stroke="#f1b104" stroke-linecap="round" stroke-linejoin="round" stroke-width="2" r="3.346"/><rect width="71.99" height="129.519" transform="translate(77.749 .205)" fill="none" stroke="#f1b104" stroke-linecap="round" stroke-linejoin="round" stroke-width="2"/><rect width="71.99" height="129.519" transform="translate(318.368 .205)" fill="none" stroke="#f1b104" stroke-linecap="round" stroke-linejoin="round" stroke-width="2"/><circle cx="3.346" cy="3.346" transform="translate(322.665 59.363)" fill="none" stroke="#f1b104" stroke-linecap="round" stroke-linejoin="round" stroke-width="2" r="3.346"/><g transform="translate(187.934)"><rect width="109.476" height="26.893" fill="none" stroke="#f1b104" stroke-linecap="round" stroke-linejoin="round" stroke-width="2"/><rect width="109.476" height="98.277" transform="translate(0 31.448)" fill="none" stroke="#f1b104" stroke-linecap="round" stroke-linejoin="round" stroke-width="2"/><rect width="83.778" height="62.293" transform="translate(15.082 55.461)" fill="#ffe6aa"/><rect width="83.778" height="62.293" transform="translate(12.852 53.231)" fill="none" stroke="#f1b104" stroke-linecap="round" stroke-linejoin="round" stroke-width="2"/><rect width="82.424" height="4.629" rx="1.62" transform="translate(13.36 39.087)" fill="none" stroke="#f1b104" stroke-linecap="round" stroke-linejoin="round" stroke-width="2"/><line x1="40.015" y2="40.015" transform="translate(13.211 53.231)" fill="none" stroke="#f1b104" stroke-linecap="round" stroke-linejoin="round" stroke-width="2"/><line x1="49.474" y2="49.474" transform="translate(12.852 53.231)" fill="none" stroke="#f1b104" stroke-linecap="round" stroke-linejoin="round" stroke-width="2"/><line x1="62.293" y2="62.293" transform="translate(18.097 53.231)" fill="none" stroke="#f1b104" stroke-linecap="round" stroke-linejoin="round" stroke-width="2"/><circle cx="5.39" cy="5.39" transform="translate(85.85 7.695)" fill="none" stroke="#f1b104" stroke-linecap="round" stroke-linejoin="round" stroke-width="2" r="5.39"/><line y1="2.114" transform="translate(91.239 7.695)" fill="none" stroke="#f1b104" stroke-linecap="round" stroke-linejoin="round" stroke-width="2"/><line y1="2.114" transform="translate(91.239 16.361)" fill="none" stroke="#f1b104" stroke-linecap="round" stroke-linejoin="round" stroke-width="2"/><line x1="2.114" transform="translate(85.85 12.861)" fill="none" stroke="#f1b104" stroke-linecap="round" stroke-linejoin="round" stroke-width="2"/><line x1="2.114" transform="translate(94.515 12.861)" fill="none" stroke="#f1b104" stroke-linecap="round" stroke-linejoin="round" stroke-width="2"/><path d="M91.239 11.195v1.89h1.67" fill="none" stroke="#f1b104" stroke-linecap="round" stroke-linejoin="round" stroke-width="2"/><circle cx="2.996" cy="2.996" transform="translate(36.483 11.634)" fill="#fff" r="2.996"/><circle cx="2.996" cy="2.996" transform="translate(47.855 11.634)" fill="#fff" r="2.996"/><circle cx="2.996" cy="2.996" transform="translate(59.232 11.634)" fill="#fff" r="2.996"/><circle cx="2.996" cy="2.996" transform="translate(70.604 11.634)" fill="#fff" r="2.996"/><circle cx="2.996" cy="2.996" transform="translate(35.367 10.742)" fill="none" stroke="#f1b104" stroke-linecap="round" stroke-linejoin="round" stroke-width="2" r="2.996"/><circle cx="2.996" cy="2.996" transform="translate(46.74 10.742)" fill="none" stroke="#f1b104" stroke-linecap="round" stroke-linejoin="round" stroke-width="2" r="2.996"/><circle cx="2.996" cy="2.996" transform="translate(58.117 10.742)" fill="none" stroke="#f1b104" stroke-linecap="round" stroke-linejoin="round" stroke-width="2" r="2.996"/><circle cx="2.996" cy="2.996" transform="translate(69.489 10.742)" fill="none" stroke="#f1b104" stroke-linecap="round" stroke-linejoin="round" stroke-width="2" r="2.996"/></g></g><g transform="translate(230.91 160.509)" stroke="#f1b104" stroke-linecap="round" stroke-linejoin="round" stroke-width="2"><path d="M3.385 11.54a2.968 2.968 0 0 1 1.624-.789l9.972-1.274 2.333-2.133 12.4 13.426-13.122 12.133c-4.447 4.107-10.84 4.667-14.336 1.143a8.34 8.34 0 0 1-2.165-7.14 12.385 12.385 0 0 1 3.962-7.308l2.109-1.946c.555-.513.509-1.325-.089-1.554l-2.735-1.059a1.432 1.432 0 0 1-.467-.345c-.736-.769-.545-2.174.514-3.154Z" fill="none"/><rect width="20.22" height="2.492" rx="1.246" transform="matrix(-.679 -.735 .735 -.679 30.35 21.476)" fill="#ffe6aa"/><path d="M19.825 1.704a13.023 13.023 0 0 1-1.549 3.145 12.788 12.788 0 0 1-1.26-3.267 1.40141678 1.40141678 0 0 1 2.8.126Z" fill="none"/><line x2="38.391" transform="translate(1.962)" fill="none"/></g><path d="M306.79 191.989h-3.071a4.172 4.172 0 0 1-4.2-4.13v-.9a4.088 4.088 0 0 1 .313-1.568 3.89 3.89 0 0 1 .355-.658 4.112 4.112 0 0 0 .313-1.573v-.583a4.172 4.172 0 0 0-4.2-4.134h-.6a4.172 4.172 0 0 0-4.2 4.135v.583a4.113 4.113 0 0 0 .313 1.573 3.884 3.884 0 0 1 .355.658 4.087 4.087 0 0 1 .313 1.568v.9c0 2.277-1.867 4.8-4.2 4.8h-3.075c-2.9 0-5.259 1.647-5.259 4.5v35.241a5.217 5.217 0 0 0 5.259 5.17h21.612a5.217 5.217 0 0 0 5.236-5.171v-35.24a5.217 5.217 0 0 0-5.264-5.17Zm-10.789-7.751a1.167 1.167 0 1 1 1.185-1.162 1.167 1.167 0 0 1-1.185 1.162Z" fill="#ffe6aa"/><path d="M305.231 191.186h-3.075a4.2 4.2 0 0 1-4.2-4.2v-.905a4.228 4.228 0 0 1 .313-1.6 3.848 3.848 0 0 1 .355-.672 4.251 4.251 0 0 0 .313-1.6v-.593a4.2 4.2 0 0 0-4.2-4.2h-.6a4.2 4.2 0 0 0-4.2 4.2v.593a4.251 4.251 0 0 0 .313 1.6 3.844 3.844 0 0 1 .355.672 4.23 4.23 0 0 1 .313 1.6v.905a4.2 4.2 0 0 1-4.2 4.2h-3.078a5.254 5.254 0 0 0-5.259 5.254v35.885a5.259 5.259 0 0 0 5.259 5.259h21.61a5.259 5.259 0 0 0 5.259-5.259V196.44a5.254 5.254 0 0 0-5.278-5.254Zm-10.808-7.891a1.185 1.185 0 1 1 1.185-1.185 1.185 1.185 0 0 1-1.185 1.185Z" fill="none" stroke="#f1b104" stroke-linecap="round" stroke-linejoin="round" stroke-width="2"/><line x2="412.421" transform="translate(0 151.386)" fill="none" stroke="#f1b104" stroke-linecap="round" stroke-linejoin="round" stroke-width="2"/><line y2="151.381" transform="translate(171.158)" fill="none" stroke="#f1b104" stroke-linecap="round" stroke-linejoin="round" stroke-width="2"/><line y2="151.381" transform="translate(320.318)" fill="none" stroke="#f1b104" stroke-linecap="round" stroke-linejoin="round" stroke-width="2"/><rect width="149.165" height="7.667" transform="translate(171.158 69.629)" fill="none" stroke="#f1b104" stroke-linecap="round" stroke-linejoin="round" stroke-width="2"/><rect width="149.165" height="7.667" transform="translate(171.158)" fill="none" stroke="#f1b104" stroke-linecap="round" stroke-linejoin="round" stroke-width="2"/><rect width="149.165" height="7.667" transform="translate(171.158 143.719)" fill="none" stroke="#f1b104" stroke-linecap="round" stroke-linejoin="round" stroke-width="2"/><rect width="71.99" height="129.519" transform="translate(11.708 10.962)" fill="none" stroke="#f1b104" stroke-linecap="round" stroke-linejoin="round" stroke-width="2"/><circle cx="3.346" cy="3.346" transform="translate(72.545 70.119)" fill="none" stroke="#f1b104" stroke-linecap="round" stroke-linejoin="round" stroke-width="2" r="3.346"/><circle cx="3.346" cy="3.346" transform="translate(92.621 70.119)" fill="none" stroke="#f1b104" stroke-linecap="round" stroke-linejoin="round" stroke-width="2" r="3.346"/><rect width="71.99" height="129.519" transform="translate(89.457 10.962)" fill="none" stroke="#f1b104" stroke-linecap="round" stroke-linejoin="round" stroke-width="2"/><line x2="412.3" fill="none" stroke="#f1b104" stroke-linecap="round" stroke-linejoin="round" stroke-width="2"/><rect width="71.99" height="129.519" transform="translate(330.076 10.962)" fill="none" stroke="#f1b104" stroke-linecap="round" stroke-linejoin="round" stroke-width="2"/><circle cx="3.346" cy="3.346" transform="translate(334.374 70.119)" fill="none" stroke="#f1b104" stroke-linecap="round" stroke-linejoin="round" stroke-width="2" r="3.346"/><path d="M302.38 50.59c0 8.432-4.667 15.623-11.242 18.437h-12.277c-6.57-2.8-11.242-10.005-11.242-18.437 0-7.429 3.626-13.9 8.983-17.266a3.43 3.43 0 0 0 1.615-2.9 3.416 3.416 0 0 0-1.578-2.886l-1.727-1.1a.588.588 0 0 1 .322-1.083h16.034a1.087 1.087 0 0 1 1.083 1.246l-.565 3.827a3.43 3.43 0 0 0 1.615 2.9c5.348 3.365 8.979 9.833 8.979 17.262Z" fill="#fff"/><path d="M300.009 50.687c0 8.614-4.75 15.964-11.438 18.839h-12.492c-6.687-2.87-11.442-10.224-11.442-18.839 0-7.592 3.691-14.2 9.146-17.63a3.518 3.518 0 0 0 1.643-2.968h0a3.5 3.5 0 0 0-1.615-2.949l-1.755-1.129a.6.6 0 0 1 .327-1.106h16.333a1.115 1.115 0 0 1 1.1 1.274l-.579 3.911a3.509 3.509 0 0 0 1.647 2.968c5.439 3.429 9.125 10.042 9.125 17.629Z" fill="none" stroke="#f1b104" stroke-linecap="round" stroke-linejoin="round" stroke-width="2"/><path d="M294.134 35.867h2.893a9.412 9.412 0 0 1 9.422 9.408v4.116a7.219 7.219 0 0 1-7.219 7.219h0" fill="none" stroke="#f1b104" stroke-linecap="round" stroke-linejoin="round" stroke-width="2"/><g transform="translate(184.332 91.851)"><circle cx="25.134" cy="25.134" transform="translate(3.397 1.353)" fill="#fff" r="25.134"/><circle cx="25.81" cy="25.81" fill="none" stroke="#f1b104" stroke-linecap="round" stroke-linejoin="round" stroke-width="2" r="25.81"/><circle cx="14.382" cy="14.382" transform="translate(11.428 11.428)" fill="none" stroke="#f1b104" stroke-linecap="round" stroke-linejoin="round" stroke-width="2" r="14.382"/><path d="M71.509 33.09h38.214a2.977 2.977 0 0 1-2.973 2.977H74.486a2.977 2.977 0 0 1-2.977-2.977Zm-3.518 6.613h45.265a3.523 3.523 0 0 1-3.523 3.523h-38.2a3.523 3.523 0 0 1-3.523-3.523Zm-4.816 7.643h54.887a4.274 4.274 0 0 1-4.275 4.27H67.445a4.27 4.27 0 0 1-4.27-4.27Z" fill="#c6efff"/><path d="M66.236 30.01h48.765a.518.518 0 0 1 .177 1l-5.171 1.867H71.229l-5.17-1.867a.518.518 0 0 1 .177-1Zm4.993 2.889h38.779a3.019 3.019 0 0 1-3.019 3.019h-32.74a3.019 3.019 0 0 1-3.02-3.019Zm-9.491 3.052h57.753a.611.611 0 0 1 .21 1.185l-6.122 2.235H67.66l-6.127-2.235a.611.611 0 0 1 .205-1.185Zm5.922 3.42h45.918a3.575 3.575 0 0 1-3.575 3.575H71.235a3.574 3.574 0 0 1-3.575-3.575Zm-12.063 3.608h70.044a.742.742 0 0 1 .257 1.437l-7.429 2.707h-55.7l-7.429-2.7a.742.742 0 0 1 .257-1.442Z" fill="none" stroke="#f4b404" stroke-linecap="round" stroke-linejoin="round" stroke-width="2"/><path d="M62.769 47.122h55.7a4.335 4.335 0 0 1-4.335 4.335h-47.03a4.335 4.335 0 0 1-4.335-4.335Z" fill="none" stroke="#f4b404" stroke-linecap="round" stroke-linejoin="round" stroke-width="2"/></g><g transform="translate(181.471 50.505)"><path d="m14.13.009-.023 15.049a4.1 4.1 0 0 1-4.2 3.962h-5.7a4.1 4.1 0 0 1-4.2-3.971V0Z" fill="none" stroke="#f1b104" stroke-linecap="round" stroke-linejoin="round" stroke-width="2"/><path d="M14.121 3.043h0a4.662 4.662 0 0 1 4.792 4.527v3.033a4.663 4.663 0 0 1-4.806 4.51h0M66.759.009v15.049a4.1 4.1 0 0 1-4.223 3.962h-5.707a4.1 4.1 0 0 1-4.2-3.971V0Z" fill="none" stroke="#f1b104" stroke-linecap="round" stroke-linejoin="round" stroke-width="2"/><path d="M66.754 3.043h0a4.663 4.663 0 0 1 4.8 4.527v3.033a4.663 4.663 0 0 1-4.809 4.51h0" fill="none" stroke="#f1b104" stroke-linecap="round" stroke-linejoin="round" stroke-width="2"/><path d="M40.584.009v15.049a4.1 4.1 0 0 1-4.2 3.962h-5.7a4.1 4.1 0 0 1-4.2-3.971V0Z" fill="#fff"/><path d="M40.584.009v15.049a4.1 4.1 0 0 1-4.2 3.962h-5.7a4.1 4.1 0 0 1-4.2-3.971V0Z" fill="none" stroke="#f1b104" stroke-linecap="round" stroke-linejoin="round" stroke-width="2"/><path d="M40.58 3.043h0a4.662 4.662 0 0 1 4.793 4.527v3.033a4.663 4.663 0 0 1-4.807 4.51h0" fill="none" stroke="#f1b104" stroke-linecap="round" stroke-linejoin="round" stroke-width="2"/><circle cx="1.045" cy="1.045" transform="translate(28.447 2.035)" fill="#f1b104" r="1.045"/><circle cx="1.045" cy="1.045" transform="translate(36.445 2.035)" fill="#f1b104" r="1.045"/><circle cx="1.045" cy="1.045" transform="translate(32.446 2.035)" fill="#f1b104" r="1.045"/><circle cx="1.045" cy="1.045" transform="translate(26.142 5.245)" fill="#f1b104" r="1.045"/><circle cx="1.045" cy="1.045" transform="translate(34.546 5.245)" fill="#f1b104" r="1.045"/><circle cx="1.045" cy="1.045" transform="translate(38.751 5.245)" fill="#f1b104" r="1.045"/><circle cx="1.045" cy="1.045" transform="translate(30.346 5.245)" fill="#f1b104" r="1.045"/><circle cx="1.045" cy="1.045" transform="translate(28.447 8.46)" fill="#f1b104" r="1.045"/><circle cx="1.045" cy="1.045" transform="translate(36.445 8.46)" fill="#f1b104" r="1.045"/><circle cx="1.045" cy="1.045" transform="translate(32.446 8.46)" fill="#f1b104" r="1.045"/><circle cx="1.045" cy="1.045" transform="translate(26.142 11.671)" fill="#f1b104" r="1.045"/><circle cx="1.045" cy="1.045" transform="translate(34.546 11.671)" fill="#f1b104" r="1.045"/><circle cx="1.045" cy="1.045" transform="translate(38.751 11.671)" fill="#f1b104" r="1.045"/><circle cx="1.045" cy="1.045" transform="translate(30.346 11.671)" fill="#f1b104" r="1.045"/><circle cx="1.045" cy="1.045" transform="translate(28.447 14.886)" fill="#f1b104" r="1.045"/><circle cx="1.045" cy="1.045" transform="translate(36.445 14.886)" fill="#f1b104" r="1.045"/><circle cx="1.045" cy="1.045" transform="translate(32.446 14.886)" fill="#f1b104" r="1.045"/></g></g><g transform="translate(495.667 112.78)" opacity=".2"><rect width="142.272" height="321.741" rx="19.44" fill="#fff" stroke="#f1b104" stroke-linecap="round" stroke-linejoin="round" stroke-width="2"/><line x1="123.429" transform="translate(9.636 84.104)" fill="#fff" stroke="#f1b104" stroke-linecap="round" stroke-linejoin="round" stroke-width="2"/><path d="m46.362 144.737-27.589.933a2.982 2.982 0 0 1-3.084-2.982h0a2.986 2.986 0 0 1 3.084-2.982l27.589.933a2.044 2.044 0 0 1 1.969 2.039h0a2.039 2.039 0 0 1-1.969 2.058Z" fill="#ffe6aa" stroke="#f1b104" stroke-linecap="round" stroke-linejoin="round" stroke-width="2"/><rect width="18.517" height="18.517" transform="translate(29.814 23.967)" fill="none" stroke="#f1b104" stroke-linecap="round" stroke-linejoin="round" stroke-width="2"/><rect width="14.961" height="12.628" transform="translate(31.592 25.572)" fill="#ffe6aa"/><rect width="25.53" height="37.271" transform="translate(63.894 23.967)" fill="#ebf4f7"/><rect width="2.142" height="1.115" transform="translate(67.711 32.554)" fill="#f1b104"/><rect width="13.743" height="1.115" transform="translate(71.855 32.554)" fill="#f1b104"/><rect width="2.142" height="1.115" transform="translate(67.711 35.853)" fill="#f1b104"/><rect width="13.743" height="1.115" transform="translate(71.855 35.853)" fill="#f1b104"/><rect width="2.142" height="1.115" transform="translate(67.711 39.157)" fill="#f1b104"/><rect width="13.743" height="1.115" transform="translate(71.855 39.157)" fill="#f1b104"/><rect width="2.142" height="1.115" transform="translate(67.711 42.456)" fill="#f1b104"/><rect width="13.743" height="1.115" transform="translate(71.855 42.456)" fill="#f1b104"/><rect width="2.142" height="1.115" transform="translate(67.711 49.059)" fill="#f1b104"/><rect width="13.743" height="1.115" transform="translate(71.855 49.059)" fill="#f1b104"/><rect width="2.142" height="1.115" transform="translate(67.711 45.755)" fill="#f1b104"/><rect width="13.743" height="1.115" transform="translate(71.855 45.755)" fill="#f1b104"/><rect width="1.778" height="2.945" transform="translate(75.397 22.628)" fill="#f1b104"/></g><g transform="translate(0 37.474)"><path d="M1268.786 265.439c-8.95-.233-5.759-12.432-15.437-14.28-7.933 2.557-13.066 12.516-13.64 13.645a35.786 35.786 0 0 0 .345 3.966l-.467.075h15.026v8.493c0 6.4-5.189 10.266-11.587 10.266h-4.438c-6.4 0-11.587-3.845-11.587-10.266v-8.512h12.133a48.039 48.039 0 0 1-.359-8.148 32.94 32.94 0 0 0-1.946-9.856 25.338 25.338 0 0 0-3.463-6.43c-7.2-5.376-23.006 1.4-26.1-5.007-3.392-7.023 3.995-15.012 14.532-11.624 8.619 2.8 12.1 13.426 13.066 17.2a26.9 26.9 0 0 1 2.8 5.572 32.167 32.167 0 0 1 1.442 5.259c.047-.4.1-.8.159-1.209a52.884 52.884 0 0 1 1.055-5.418c-2.291-20.066 4.517-29.142 7.6-32.11s8.11-4.914 12.6.9 2.543 14.345-10.733 23.729a48.588 48.588 0 0 0-8.591 7.891 47.1 47.1 0 0 0-.989 5.105 56.312 56.312 0 0 0-.513 5.88c.047 1.176 0 1.9 0 1.979h-.042v.392a39.9 39.9 0 0 1 3.467-5.133c2.959-3.682 6.2-6.2 9.5-7.392 1.941-1.685 8.815-6.533 20.262-2.674 13.698 4.641 5.219 17.931-4.095 17.707Z" transform="translate(-682.533 -212.723)" fill="#e4f7ff" style="mix-blend-mode:multiply;isolation:isolate"/><path d="M555.24 36.234a47.521 47.521 0 0 1 9.333-8.736c13.271-9.384 15.208-17.915 10.733-23.725s-9.445-3.925-12.6-.9-10.192 12.404-7.466 33.361Zm11.549.545s7.154-7.812 20.836-3.211 5.213 17.91-4.111 17.672-5.465-13.483-16.725-14.461Zm-16.87-4.662s-2.851-15.147-13.388-18.54S518.612 18.183 522 25.183s22.053-1.773 27.919 6.934Z" fill="#aea61f"/><path d="M554.334 54.647s-4-24.112 13.2-41.065" fill="none" stroke="#9f9300" stroke-linecap="round" stroke-linejoin="round" stroke-width="2"/><path d="M553.975 50.512s12.469-26.277 30.267-8.358m-30.267 6.18s1.325-22.4-19.744-27.369" fill="none" stroke="#9f9300" stroke-linecap="round" stroke-linejoin="round" stroke-width="2"/><path d="M541.748 54.643h27.607v8.46a11.638 11.638 0 0 1-11.638 11.638h-4.33a11.638 11.638 0 0 1-11.638-11.638v-8.46Z" fill="#f1b104"/><path d="M37.327 350.499s1.148-78.206 37.64-124.563c0 0-18.82 26.356-24.868 124.563Z" fill="#948900"/><path d="M44.793 350.499s8.194-83.661-35.619-114.959c0 0 35.89 32.7 20.481 114.959Z" fill="#948900"/><path d="M40.006 349.328S39.731 274.664 0 256.903c0 0 39.731 28.886 26.921 92.425Z" fill="#948900"/><path d="M33.291 350.499s-9.333-83.484 20.645-112.687c0 0-16.608 33.067-9.142 112.687Z" fill="#b0a81f"/><path d="M43.188 350.499s0-65.457 37.621-77.707c0 0-30.486 33.286-25.95 77.707Zm-18.586 0s5.38-34.826-22.017-50.436c0 0 31.989 7.042 30.706 50.436Z" fill="#b0a81f"/><rect width="46.936" height="46.936" rx="13.5" transform="translate(16.263 350.093)" fill="#fff" stroke="#f1b104" stroke-linecap="round" stroke-linejoin="round" stroke-width="2"/></g><g transform="translate(237.908)" opacity=".2"><rect width="143.154" height="3.551" rx="1.776" fill="none" stroke="#f1b104" stroke-linecap="round" stroke-linejoin="round" stroke-width="2"/><line y2="6.542" transform="translate(16.897 3.565)" fill="none" stroke="#f1b104" stroke-linecap="round" stroke-linejoin="round" stroke-width="2"/><circle cx="8.348" cy="8.348" transform="translate(8.549 12.184)" fill="#ffe6aa" r="8.348"/><path d="M7.42 14.592a11.923 11.923 0 0 1 18.951 0" fill="none" stroke="#f1b104" stroke-linecap="round" stroke-linejoin="round" stroke-width="2"/><line y2="6.538" transform="translate(71.426 3.467)" fill="none" stroke="#f1b104" stroke-linecap="round" stroke-linejoin="round" stroke-width="2"/><circle cx="8.348" cy="8.348" transform="translate(63.077 12.086)" fill="#ffe6aa" r="8.348"/><path d="M61.948 14.485a11.923 11.923 0 0 1 18.951 0" fill="none" stroke="#f1b104" stroke-linecap="round" stroke-linejoin="round" stroke-width="2"/><line y2="6.538" transform="translate(126.224 3.467)" fill="none" stroke="#f1b104" stroke-linecap="round" stroke-linejoin="round" stroke-width="2"/><circle cx="8.348" cy="8.348" transform="translate(117.876 12.086)" fill="#ffe6aa" r="8.348"/><path d="M116.747 14.485a11.923 11.923 0 0 1 18.951 0" fill="none" stroke="#f1b104" stroke-linecap="round" stroke-linejoin="round" stroke-width="2"/></g><circle cx="10.145" cy="10.145" transform="translate(429.934 64.528)" fill="#3a193f" r="10.145"/><path d="M407.843 85.056c2.016-2.063 11.116-7.756 16.183-9.431 4.3-1.4 13.626-2.212 17.4 6.262s.145 15.768 5.745 20.822 35.106 8.866 22.525 41.345c-5.754 14.849-66.3-3.267-68.383-19.553-1.358-10.579 13.649-14.97 11.83-18.237-2.337-4.18-13.159-13.177-5.3-21.208Z" fill="#3a193f"/><path d="M399.947 124.722c-2.375-11.634 12.5-14.737 11.993-18.708-.56-4.377-11.2-13.388-3.22-20.813" fill="none" stroke="#3a193f" stroke-linecap="round" stroke-linejoin="round" stroke-width="2"/><path d="M432.902 103.092s-1.078 15.171 9.174 19.767c0 0-12.212 9.865-25.479 1.629 0 0 8.274-1.624 4.746-19.917Z" fill="#b57e6f"/><g clip-path="url(#a)" transform="translate(416.597 103.092)"><ellipse cx="10.943" cy="9.664" rx="10.943" ry="9.664" transform="translate(-1.344 -5.45)" fill="#3a193f"/></g><path d="M434.806 101.45c.257 2.011-3.868 10.052-13.262 11.148-2.6.308-7.746-4.746-8.474-9.851-.593-4.116-1.311-8.764-1.4-10.224a8.918 8.918 0 0 1 7-8.82c2.049-.359 6.066-.275 7.732 5.184 2.039 6.64 6.612 6.85 8.8 6.482.406-.48-.242 4.896-.396 6.081Z" fill="#b57e6f"/><path d="M415.939 83.397s6.122-2.193 8.428 5.3c2.277 7.415 6.533 5.852 9.422 5.25" fill="none" stroke="#3a193f" stroke-linecap="round" stroke-linejoin="round" stroke-width="2"/><path d="M436.289 328.647v-.089c-3.267-18.881-18.484-104.091 12.049-108.487 5.689-.817 24.266 5.819 22.362 40.753-1.54 28.092-10.108 48.658-11.536 65.686-.037 14 5.9 21.083 7.494 33.132 2.212 16.8-2.7 44.574-6.192 57.711-.131 1.325-.126 5.982 1.433 8.264s2.333 2.427 2.058 4.993h-17.961a4.5 4.5 0 0 1 3.052-3.883c2.907-.971 6.482-7.784 5.745-10.7-4.391-16.7-11.872-52.265-12.847-57.636Z" fill="#b57e6f"/><g clip-path="url(#b)" transform="translate(429.612 220.008)"><rect width="60.179" height="195.802" transform="translate(1.689 -29.732)" fill="#41465a"/></g><path d="M462.1 425.86c1.526 1.521 2.123 2.665 1.829 4.769h-17.961s-.793-3.126 4.2-5.222c1.741-.727 10.285-1.199 11.932.453Z" fill="#f1b104"/><path d="M416.517 327.448c-1.451 13.934 3.733 21.55 4.1 33.7.467 16.085-6.9 41.065-11.96 54.2v.028a12.4 12.4 0 0 0 .2 7.14c1.279 3.267 2.333 8.115-2.142 8.115h-24.637s-.569-3.192 5.964-4.093c6.3-.868 14.466-4.456 14.4-10.607-2.445-16.575-5.861-52.9-6.286-58.411-.495-6.4-2.03-23.361-2.483-28.764a.042.042 0 0 1 0-.023c-1.811-16.734-11.279-106.014 18.358-108.6 5.73-.495 23.9 7.186 19.912 41.952-3.029 26.389-11.909 45.732-14.933 62.041-.176 1.199-.39 2.324-.493 3.322Z" fill="#b57e6f"/><g transform="translate(382.062 220.111)" clip-path="url(#c)"><rect width="60.179" height="195.802" transform="translate(-5.102 -29.834)" fill="#41465a"/></g><path d="M408.842 422.515s3.733 8.115-1.685 8.115h-25.082s-1.008-3.071 5.506-4.093c.905-.14 3.5-.625 3.5-.625s-.807 2.268 4.928 2.021 8.32-5.021 12.833-5.418Zm1.363-227.577c-.308-9.4-2.268-18.619-3.4-19.371-3.523-2.333-5.684-6.836-5.4-12.912a30.9 30.9 0 0 1-17.482-9.331s8.1-14.167 12.5-19.245c4.107-4.727 11.75-7.466 17.1-8.927l3.08-.658c12.324 7.653 24.13-.5 25.712-1.7l7.933 3.1c3.7 1.489 8.4 3.673 11.293 7.023 4.4 5.072 12.5 19.245 12.5 19.245s-8.936 9.174-21 10.187c-2.8 11.508-5.175 29.684-4.284 32.666" fill="#f1b104"/><path d="m950.576 395.082 1.246-1.363c-.089.406-4.419 25.806-4.27 31.368h19.063c3.066-9.4 8.106-32.2 8.106-32.2s2.03-.163 1.7 3.2c-.961 9.865-3.817 25.526-3.817 29.012h.047s4.26 25.782 14.27 47.556 11.694 91.841-.159 95.094c-25.418 6.976-51.42 3.239-59.139-1.6-5.553-3.481-4.8-59.031 13.617-88.155 6.174-9.758-2.483-24.905-3-31.116-.737-8.815 5.6-21.783 5.6-21.783Z" transform="translate(-532.215 -270.552)" fill="#e3e3e3" style="mix-blend-mode:multiply;isolation:isolate"/><path d="M452.88 197.518c10.01 21.774 9.072 91-2.669 94.637-25.134 7.821-50.067 5.381-57.543-.681-5.087-4.13-4.568-59.489 13.85-88.612 6.169-9.758-2.483-24.905-3-31.116-.733-8.815 5.6-17.215 5.6-17.215 0-3.486 5.031-28.414 7.877-30.234s2.842-1.367 2.842-1.367-6.024 25.992-5.87 31.6h19.063c3.066-9.4 8.563-32.2 8.563-32.2s2.707-1.1 2.618 2.282c-.252 9.2-6.328 26.44-6.328 29.926h.047a256 256 0 0 0 12.371 37.127c.247-2.7 1.087-8.68 3.593-5.544 1.7 2.128-.728 5.357-2.38 7.14 2.455.789 7.648 2.9 9.142 6.9l-2.277 1.689-5.945-5.315Z" fill="#ebf4f7"/><g transform="translate(373.957 155.894)"><rect width="70.376" height="4.331" rx="2.165" transform="translate(13.298 102.994)" fill="#fff" stroke="#f1b104" stroke-miterlimit="10" stroke-width="2"/><path d="M78.657 92.434c-5.394 2.445 12.628-43.954 15.586-48.942-3.631-7.989-10.126-24.009-15.045-37.052a33.773 33.773 0 0 0 15.6-5.926s12.3 26.711 12.222 43.9c0 5.466-18.789 43.685-28.363 48.02Z" fill="#b57e6f"/><path d="M96.026 3.579c-2.73 2.842-9.184 5.744-14.961 7.8-.765-1.685-1.475-3.327-2.128-4.914h.261a33.772 33.772 0 0 0 15.6-5.926q.602 1.42 1.228 3.04Z" fill="#3a193f"/><path d="M81.27 89.862c0-1-7.989-2.707-10.78-2.651a20.873 20.873 0 0 0-7.812 2.455 29.338 29.338 0 0 0-2.749 3.369s.686 1.4 2.665-.056 6.1-1.139 6.846-.387c1.671 1.7-3.01-.061-3.78.541s-.663 1.139-.663 1.139 4.667.994 5.413 1.12a20.618 20.618 0 0 0 5.931-1.475c1.798-.746 4.957-2.594 4.929-4.055Z" fill="#b57e6f"/><g transform="translate(52.341 90.455)"><ellipse cx="6.458" cy="5.898" rx="6.458" ry="5.898" transform="translate(8.093 .546)" fill="#f0512f"/><ellipse cx="5.068" cy="5.189" rx="5.068" ry="5.189" transform="translate(8.284 1.694)" fill="#f26b4e"/><path d="M14.038 5.171a.845.845 0 1 1-1.372 0 .686.686 0 1 1 1.372 0Zm-1.372 3.426a.844.844 0 1 1 1.372 0 .686.686 0 1 1-1.372 0Zm-1.13-2.362a4.871 4.871 0 0 1 1.4.653 4.935 4.935 0 0 1-1.4.653.6535.6535 0 1 1 0-1.307Zm3.613 1.305a4.871 4.871 0 0 1-1.4-.653 4.934 4.934 0 0 1 1.4-.653.6535.6535 0 0 1 0 1.307Z" fill="#f0512f"/><ellipse cx="5.912" cy="4.816" rx="5.912" ry="4.816" transform="rotate(-31.22 10.96841436 3.0645)" fill="#f0512f"/><ellipse cx="5.278" cy="4.331" rx="5.278" ry="4.331" transform="rotate(-35.78 10.9057098 3.14577906)" fill="#f26b4e"/><path d="M8 5.885a5.273 5.273 0 0 1-.9 1.2 3.535 3.535 0 0 1-.42-1.2.8.8 0 0 1 .779-.588.495.495 0 0 1 .541.588ZM6.067 8.97a5.164 5.164 0 0 1 .9-1.2 3.5 3.5 0 0 1 .42 1.2.8.8 0 0 1-.775.588.5.5 0 0 1-.546-.588Zm-.652-2.133a3.882 3.882 0 0 1 1.241.588 6.024 6.024 0 0 1-1.475.588.495.495 0 0 1-.541-.588.8.8 0 0 1 .775-.588Zm3.237 1.176a3.883 3.883 0 0 1-1.241-.588 6.018 6.018 0 0 1 1.475-.588.5.5 0 0 1 .541.588.793.793 0 0 1-.775.588Z" fill="#f0512f"/></g><path d="M.186 37c-.551 1.9.084 4.774 2.515 8.232 8.544 12.133 30.048 37.4 36.823 38.116 3.318.355-14.774-33.506-28.176-45.134 2.721-4.037 9.333-18.61 16.071-31.5-6.4-.658-11.433-4.312-14.657-6.71C12.761 0 3.269 20.346.186 37Z" fill="#b57e6f"/><path d="M25.491 10.359c-5.548-1.867-10.952-5.273-13.5-8.4.2-.378.6-1.582.8-1.951A34.358 34.358 0 0 0 27.42 6.7Z" fill="#3a193f"/><rect width="18.909" height="4.069" rx="2.035" transform="rotate(19.91 -215.8194383 128.54095636)" fill="#41465a"/><path d="m72.679 97.623-24.457-8.866-1.7 4.667s15.956 8.007 26.157 4.199Z" fill="#c6efff"/><path d="M37.829 78.757c1.769-.107 9.669 3.658 10.005 4.624s4.783 6.351 4.783 6.351-1.153 1.181-3.071-.775c-2.23-2.268-3.168-2.184-3.168-2.184s-.765 1.615-1.941 1.5-.77 1.428-2.641 1.545c-1.1.065-1.713.765-2.646.252s-3.8-7.079-3.351-9.277c.369-1.864.976-1.976 2.03-2.036Z" fill="#b57e6f"/><g transform="translate(37.643 93.018)"><rect width="10.906" height="1.708" rx=".854" transform="translate(0 7.424)" fill="#f0512f"/><ellipse cx="5.394" cy="4.023" rx="5.394" ry="4.023" transform="rotate(-18.94 16.47682534 -34.09637685)" fill="#f0512f"/><ellipse cx="4.788" cy="3.64" rx="4.788" ry="3.64" transform="rotate(-21.57 17.0160686 -29.66995967)" fill="#f26b4e"/><path d="M18.768 4.513c-.061.266-.845.985-.845.985s-.467-.719-.392-.985a.742.742 0 0 1 .728-.467c.351-.014.579.201.509.467Zm-1.801 2.514c.061-.261.845-.98.845-.98s.467.719.392.98a.737.737 0 0 1-.728.467c-.336.014-.574-.201-.509-.467Zm-.606-1.736a3.893 3.893 0 0 1 1.157.467 6.111 6.111 0 0 1-1.4.467c-.341 0-.565-.215-.509-.467a.742.742 0 0 1 .751-.467Zm3.026.957a3.909 3.909 0 0 1-1.157-.467 6.16 6.16 0 0 1 1.377-.467c.341 0 .569.215.509.467a.742.742 0 0 1-.729.467Z" fill="#f0512f"/></g></g><path d="M412.692 93.946s.812-1.624 3.654-.812m5.679 4.461a9.433 9.433 0 0 0 4.461-1.619m-6.085 10.14s1.624.406 3.654-1.624" fill="none" stroke="#3a193f" stroke-linecap="round" stroke-linejoin="round" stroke-width="2"/><path d="m418.777 97.595-.812 3.654 1.381 1.647" fill="none" stroke="#9e2923" stroke-linecap="round" stroke-linejoin="round" stroke-width="2"/><circle cx="4.055" cy="4.055" transform="rotate(-63.15 293.56098787 -299.78600652)" fill="#b57e6f" r="4.055"/><path d="M413.504 98.407s1.148.579 3.416-.317m3.887-4.956s1.624-2.161 5.679-.672" fill="none" stroke="#3a193f" stroke-linecap="round" stroke-linejoin="round" stroke-width="2"/><circle cx="6.967" cy="6.967" transform="translate(341.91 181.121)" fill="#41465a" r="6.967"/><circle cx="6.967" cy="6.967" transform="translate(321.214 178.778)" fill="#41465a" r="6.967"/><g transform="translate(305.989 310.411)" fill="#fff" stroke="#f1b104" stroke-miterlimit="10" stroke-width="2"><path d="M13.037 7.476.004 129.276a1.363 1.363 0 0 0 1.358 1.507 1.363 1.363 0 0 0 1.339-1.106L23.887 7.499Zm49.969 0L76.04 126.901a1.367 1.367 0 0 1-1.358 1.507 1.363 1.363 0 0 1-1.339-1.106L52.161 7.476Z"/><rect width="70.035" height="7.476" rx="3.738" transform="translate(2.49)"/></g><path d="M382.205 308.321c-.373 2.679-17.733 1.232-55.331 1.675a.9.9 0 0 1-.219.023c-7 0-12.711-10.663-12.879-38.424s10-29.217 13.556-29.068c10.509.434 11.246 15.623 11.246 29.306a81.869 81.869 0 0 1-2.277 19.133c7.182 2.721 8.2-1.017 20.724 1.946 13.556 3.229 25.484 13.281 25.18 15.409Z" fill="#3a193f"/><path d="M398.137 305.633c1.479.686 3.756-.107 5.077-.126 3.117-.051 3.761 1.727 3.761 1.727l-7.406 16.449s-2.8-.8-2.254-5.674c.574-5.086.826-7.28-1.965-8.106s.337-5.399 2.787-4.27Z" fill="#f1b104"/><path d="M395.37 309.833c-7.933.425-24.093-.14-49.465.163a.9.9 0 0 1-.219.023c-11.288 0-12.711-10.663-12.879-38.424s10-29.217 13.556-29.068c10.5.434 11.242 15.623 11.242 29.306a81.874 81.874 0 0 1-2.461 19.915c6.176 1.878 8.4-1.785 20.912 1.178 13.533 3.215 21.419 10.635 22.362 13.533.26.821.76 3.169-3.048 3.374Z" fill="#db9a8f"/><path d="M357.57 271.834a82.073 82.073 0 0 1-1.769 16.9 132.991 132.991 0 0 1-22.562.112c-.313-4.806-.429-10.528-.467-17.266-.168-27.766 10.005-29.217 13.561-29.068 10.519.455 11.237 15.639 11.237 29.322Z" fill="#3a193f"/><path d="M308.013 227.73c10.341-7.233 21.723-19.133 22.782-23.762 1.283-5.6-2.254-11.937-6.533-8.274-6.286 5.343-16.048 14.933-20.463 20.645-6.472-6.37-20.439-19.179-24.7-16.519-1.8 1.129 17.588 25.2 21.247 28.307 2.091 1.792 5.791.917 7.667-.397Z" fill="#db9a8f"/><g transform="translate(249.999 201.294)"><rect width="32.222" height="4.657" transform="rotate(-38.92 53.66535788 1.23042906)" fill="#ffe6aa" stroke="#f1b104" stroke-miterlimit="10" stroke-width="2"/><path d="m39.133 17.345-1.657 1.339a2.333 2.333 0 0 1-2.912-3.635l1.657-1.339Z" fill="#f1b104"/><path d="m0 20.248 11.139 13.724 25.068-20.248L25.064 0Z" fill="#fff" stroke="#f1b104" stroke-miterlimit="10" stroke-width="2"/><circle cx=".495" cy=".495" transform="translate(35.871 17.233)" fill="#ffe6aa" r=".495"/><circle cx=".495" cy=".495" transform="translate(39.129 19.917)" fill="#ffe6aa" r=".495"/><circle cx=".495" cy=".495" transform="translate(41.196 26.557)" fill="#ffe6aa" r=".495"/><circle cx=".495" cy=".495" transform="translate(38.737 28.284)" fill="#ffe6aa" r=".495"/><circle cx=".495" cy=".495" transform="translate(41.691 32.204)" fill="#ffe6aa" r=".495"/><circle cx=".495" cy=".495" transform="translate(42.937 30.01)" fill="#ffe6aa" r=".495"/><circle cx=".495" cy=".495" transform="translate(37.747 24.7)" fill="#ffe6aa" r=".495"/><circle cx=".495" cy=".495" transform="translate(37.257 20.906)" fill="#ffe6aa" r=".495"/><circle cx=".35" cy=".35" transform="translate(39.133 21.648)" fill="#ffe6aa" r=".35"/><circle cx=".35" cy=".35" transform="translate(38.13 19.571)" fill="#ffe6aa" r=".35"/><circle cx=".35" cy=".35" transform="translate(40.342 23.552)" fill="#ffe6aa" r=".35"/><circle cx=".35" cy=".35" transform="translate(40.944 29.973)" fill="#ffe6aa" r=".35"/><circle cx=".35" cy=".35" transform="translate(44.686 36.077)" fill="#ffe6aa" r=".35"/><circle cx=".35" cy=".35" transform="translate(41.341 34.117)" fill="#ffe6aa" r=".35"/><circle cx=".35" cy=".35" transform="translate(43.982 32.703)" fill="#ffe6aa" r=".35"/><circle cx=".35" cy=".35" transform="translate(39.488 34.117)" fill="#ffe6aa" r=".35"/><circle cx=".35" cy=".35" transform="translate(39.488 25.661)" fill="#ffe6aa" r=".35"/><circle cx=".35" cy=".35" transform="translate(43.436 27.346)" fill="#ffe6aa" r=".35"/><circle cx=".35" cy=".35" transform="translate(38.13 29.805)" fill="#ffe6aa" r=".35"/><circle cx=".233" cy=".233" transform="translate(36.627 16.23)" fill="#ffe6aa" r=".233"/><circle cx=".233" cy=".233" transform="translate(38.009 23.318)" fill="#ffe6aa" r=".233"/><circle cx=".233" cy=".233" transform="translate(38.009 23.318)" fill="#ffe6aa" r=".233"/><circle cx=".233" cy=".233" transform="translate(38.9 26.818)" fill="#ffe6aa" r=".233"/><circle cx=".233" cy=".233" transform="translate(41.294 24.466)" fill="#ffe6aa" r=".233"/><circle cx=".233" cy=".233" transform="translate(42.647 25.778)" fill="#ffe6aa" r=".233"/><circle cx=".233" cy=".233" transform="translate(40.809 32.465)" fill="#ffe6aa" r=".233"/><circle cx=".233" cy=".233" transform="translate(38.998 31.662)" fill="#ffe6aa" r=".233"/><circle cx=".233" cy=".233" transform="translate(43.436 33.645)" fill="#ffe6aa" r=".233"/><circle cx=".233" cy=".233" transform="translate(42.708 35.372)" fill="#ffe6aa" r=".233"/><circle cx=".233" cy=".233" transform="translate(44.332 31.662)" fill="#ffe6aa" r=".233"/><circle cx=".233" cy=".233" transform="translate(38.503 33.169)" fill="#ffe6aa" r=".233"/><circle cx=".233" cy=".233" transform="translate(40.809 35.605)" fill="#ffe6aa" r=".233"/><circle cx=".233" cy=".233" transform="translate(42.414 28.153)" fill="#ffe6aa" r=".233"/><circle cx=".233" cy=".233" transform="translate(40.221 31.662)" fill="#ffe6aa" r=".233"/><circle cx=".233" cy=".233" transform="translate(40.221 29.04)" fill="#ffe6aa" r=".233"/></g><path d="M279.995 206.385a3.759 3.759 0 0 0 3.047-2.7c.509-2.525 2.627-2.137.243-3.491-2.2-1.241-8.465-1.269-9.884-.826a9.068 9.068 0 0 0-3.463 2.539c-.173.345-1.265 2.9-1.265 2.9s2.366 1.7 3.733.387a5.478 5.478 0 0 1 4.332-1.489 2.977 2.977 0 0 1 1.913 1.036Z" fill="#db9a8f"/><path d="M345.186 193.674c3.061.887 6.79 2.427 9.282 20.491s14.844 67.594 15.054 68.84-49.33 4.816-65.527-5.772c0 0 14.573-70.618 19.571-80.2 1.311-2.52 5.441-3.575 9.216-3.887s7.794-.807 12.404.528Z" fill="#ebf4f7"/><path d="M341.85 184.958s-1.078 4.629 3.337 8.717c0 0-10.341 5.133-17.182.429 0 0 3.733-4.116 3.313-9.146Z" fill="#db9a8f"/><path d="M342.512 189.993c-3.136 2.282-8.078 4.667-13.192 2.282a12.474 12.474 0 0 0 2-7.322h10.53a8.717 8.717 0 0 0 .663 5.04Z" fill="#3a193f"/><path d="M346.712 185.432s-10.99 10.8-18.731 2.184c-6.6-7.364 2.963-24.606 12.791-20.318 8.142 3.553 5.94 18.134 5.94 18.134Z" fill="#db9a8f"/><path d="M338.307 168.396s.117 9.874 8.465 13.43l-.28 5.343s8-.117 8.932-6.64c1.456-10.126-3.36-16.5-9.884-17.817s-17.623-1.171-18.979 6.314a48.489 48.489 0 0 0 .205 7.13s3.169-9.53 11.541-7.76Z" fill="#41465a"/><path d="M338.307 167.925s-3.388 9.641 5.413 13.2" fill="none" stroke="#41465a" stroke-miterlimit="10" stroke-width="2"/><path d="M346.269 185.62s4.228-.4 3.822-2.333-3.542-1.442-3.542-1.442Z" fill="#db9a8f"/><path d="M319.138 243.969a23.557 23.557 0 0 1-27.3 19.091 23.552 23.552 0 0 1-19.086-27.3Z" fill="#fff" opacity=".85"/><path d="M319.138 243.969a23.557 23.557 0 0 1-27.3 19.091 23.552 23.552 0 0 1-19.086-27.3Z" fill="none" stroke="#f1b104" stroke-miterlimit="10" stroke-width="2"/><path d="M307.691 258.216a20.752 20.752 0 0 1-26.263-2.035c.933-1.153 7.266 3.267 13.594-.131 11.218-5.986 12.548 1.289 12.669 2.166Z" fill="#ffe6aa"/><g fill="#db9a8f"><path d="M350.408 202.713c.849-5.688-5.866-7.186-9.506-2.058-3.393 4.788-10.266 26.408-10.266 26.408-2.646 1.4-30.51 20.01-29.576 22.992.518 1.657 21.839-5.45 34.929-13.225 2.585-1.657 12.207-19.306 14.419-34.117Z"/><path d="M304.167 250.218c-1.078.467-7.877 3.341-9.361 3.266s-4.429-2.091-4.667-2.385-1.316-1.932-1.316-1.932a1.461 1.461 0 0 1 2.184 0c1.237 1.4 3.453 1.055 4.624.583.467-.2 1.227-.933.849-1.535s-2.273.079-2.856-.056a1.759 1.759 0 0 1-1.176-1.157l3.574-1.157a17.254 17.254 0 0 1 7.051 1.036c2.354 1.036 3.596 2.207 1.094 3.337Z"/></g><path d="M179.6 428.479c0 3.962-3.057 5.418-3.057 12.455h31.23s.56-7.261-7.378-7.466c-6.813-.191-11.956-4.359-11.881-4.97s-8.914-.019-8.914-.019Z" fill="#2b303f"/><path d="M176.291 440.211h31.686v.7a.966.966 0 0 1-.966.966h-29.75a.966.966 0 0 1-.966-.966Zm14.401-4.891h-.1a.467.467 0 0 1-.364-.555c.023-.117.607-2.837 2.385-3.64a2.931 2.931 0 0 1 2.749.294.46835697.46835697 0 0 1-.467.812 2.025 2.025 0 0 0-1.895-.252c-1.115.5-1.717 2.333-1.867 2.977a.467.467 0 0 1-.441.364Zm3.989.234h-.121a.467.467 0 0 1-.336-.569 4.566 4.566 0 0 1 2.142-2.8 3.364 3.364 0 0 1 2.959.182.467.467 0 1 1-.415.812 2.479 2.479 0 0 0-2.156-.173 3.719 3.719 0 0 0-1.624 2.2.467.467 0 0 1-.449.348Z" fill="#6db1ba"/><path d="M194.71 427.004a30.683 30.683 0 0 1-7.154 1.722c-4.153.532-11.76-.551-11.76-.551-7.994-12.548-16.3-48.578-14.933-78.2.761-16.734 10.448-24.056 4.2-38.849-5.5-12.2-24.807-45.732-28-73.311-1.157-10.028.467-17.369 3.491-22.591 2 .285 3.99.551 5.94.793a270.171 270.171 0 0 0 30.668 2.333c6.477 12.418 13.594 35.167 18.531 80.161l1.349 19.4c.631 9.622-2.369 57.724-2.332 109.093Z" fill="#41465a"/><path d="M107.913 428.479c0 3.962-3.061 5.418-3.057 12.455h31.485s.555-7.261-7.382-7.466c-6.808-.191-11.5-4.359-11.424-4.97s-9.622-.019-9.622-.019Z" fill="#2b303f"/><path d="M104.865 440.211h31.686v.7a.966.966 0 0 1-.966.966h-29.754a.966.966 0 0 1-.966-.966Zm14.714-4.658a.347.347 0 0 1-.1 0 .467.467 0 0 1-.364-.555c.023-.112.607-2.837 2.385-3.64a2.931 2.931 0 0 1 2.749.294.47052577.47052577 0 0 1-.467.817 2.011 2.011 0 0 0-1.895-.252c-1.115.5-1.713 2.333-1.867 2.973a.466.466 0 0 1-.441.363Zm3.989.238a.5.5 0 0 1-.117 0 .466.466 0 0 1-.336-.574 4.477 4.477 0 0 1 2.137-2.8 3.36 3.36 0 0 1 2.959.177.47.47 0 1 1-.411.845 2.477 2.477 0 0 0-2.156-.173 3.722 3.722 0 0 0-1.624 2.2.466.466 0 0 1-.452.325Z" fill="#6db1ba"/><path d="M149.823 304.21c-.21 1.988-1.232 8.787-2 13.262-1.918 11.27-26.893 106.27-27.453 111.007a27.875 27.875 0 0 1-6.682.835 100.494 100.494 0 0 1-10.052-.373c-4.9-13.738-9.072-49.987-2.436-77.31 3.556-14.667 13.64-23.622 14.135-36.464-2.333-12.8-13.6-52.652-10.434-80.67 1.321-11.666 5.446-19.329 10.532-24.037a270 270 0 0 0 31.084 5.562c4.795 12.508 8.841 36.562 3.306 88.188Z" fill="#41465a"/><path d="M229.975 202.149c-35.643-27.7-39.465-58.089-40.151-65.76-1-11.2 4.8-20.066 19.968-10.794 13.066 7.994 26.45 36.73 34.681 51.392 16.384-14.877 39.768-28.2 42.265-29.866 5.861-3.906 7.116-.112 4.041 3.934-3.547 4.667-28.032 46.124-40.095 53.291-4.456 2.67-12.818 3.939-20.709-2.197Z" fill="#ffb3a4"/><path d="M236.2 161.644c-7.21 12.222-20.626 19.049-26.016 21.4-16.879-21.149-19.856-41-20.36-46.665-.994-11.2 4.8-20.066 19.968-10.794 9.301 5.698 18.76 21.9 26.408 36.059Z" fill="#3a193f"/><path d="M296.267 136.645c-.383 1.246-2.049 3.015-.681 3.2.709.1 5.927 0 6.276 1.974a4.144 4.144 0 0 1-.523 2.688 2.884 2.884 0 0 1-.177 3.071c.523 1.134.509 2.506-.047 3.029 0 0 .789 2.893-.429 3.365-3.78 1.461-10.3.723-12.492.1-1.9-.546-3.449-2.389-3.449-6.505 0-1.685 2.273-5.768 3.784-7.382.621-.663 2.921-3.323 3.673-4.032a9.6 9.6 0 0 0 2.38-3.733s2.753.758 1.685 4.225Z" fill="#ffb3a4"/><path d="M300.569 141.349c0 .873-5.231.3-6.169.369-1.325.093-1.549 2.851.149 2.828a35.044 35.044 0 0 0 6.846 0" fill="none" stroke="#e2564b" stroke-linecap="round" stroke-linejoin="round" stroke-width="2"/><path d="M301.106 147.588c-5.665.313-7.121 0-7.121 0-.826.042-1.451-2.945.551-3.029" fill="none" stroke="#e2564b" stroke-linecap="round" stroke-linejoin="round" stroke-width="2"/><path d="M300.844 150.604c-5.348.392-7.121 0-7.121 0-.779 0-1.316-3.071.275-3.029" fill="none" stroke="#e2564b" stroke-linecap="round" stroke-linejoin="round" stroke-width="2"/><path d="M295.18 150.775s-1.829-.439-1.965.719c-.247 2.058.714 2.422 5.53 2.24" fill="none" stroke="#e2564b" stroke-linecap="round" stroke-linejoin="round" stroke-width="2"/><path d="M206.894 180.156s27.621-13.9 30.332-22.964c0 0-15.591-26.468-30.3-34s-34.149 5.683-.032 56.964Z" fill="#f1b104"/><path d="M132.431 228.36c-25.33-6.4-30.6-9.8-18.512-26.86 9.646-13.6 11.27-65.149 24.266-81.776 12.749-16.3 30.934-12.9 37.159-12.133 0 0 10.588-.35 30.556 14.368 25.46 18.769 10.957 40.659 7.438 47.93-2.147 4.438-11.041 18.937-33.244 44.042-3.267 3.673-.079 11.228.467 12.712s-20.35 8.74-48.13 1.717Z" fill="#f1b104"/><path d="M188.858 89.854a33.607 33.607 0 0 1-14.107 17.868s10.07 11.568 28.932 12.684c0 0-8.208-7.574 2.982-22.544Z" fill="#ffb3a4"/><path d="M189.25 90.027c-.289.658-.518 1.2-.677 1.61 0 0-1.941 6.589.2 11.862 1.661 4.1 8.162 10.3 11.666 10.061.051-3.6 1.8-9.748 6.244-15.7Z" fill="#3a193f"/><path d="M188.452 91.329s1.344 6.916 2.847 9.333c2.627 4.233 9.333 8.306 12.133 8.036 1.909-.182 4.466-.2 8.577-8.423 1.171-2.333 6.416-17.387 5.772-18.269s-18.283-9.851-20.043-8.26-8.049 14.442-9.286 17.583Z" fill="#ffb3a4"/><path d="M190.473 86.858s3.509 1.759 5.133-4.7c1.428-5.74 3.052-6.356 9.09-1.4 4.914 4.023 15.525 8.68 19.436 3.78 3.589-4.489.546-8.1-3.038-7.765-4.368.411-5.553-9.333-15.017-11.05-7.56-1.4-10.481 4.545-10.481 4.545a4.513 4.513 0 0 0-6.58 1.423c-3.584 5.222-.616 19.744-.616 19.744Z" fill="#41465a"/><path d="M203.222 78.384c4.853 4.9 12.511 10.976 17.21 8.946" fill="none" stroke="#41465a" stroke-linecap="round" stroke-linejoin="round" stroke-width="2"/><path d="M195.695 70.554a3.036 3.036 0 0 0-3.519-2.413" fill="none" stroke="#41465a" stroke-miterlimit="10" stroke-width="2"/><path d="M190.67 86.947s-.882-2.982-3.211-2.161c-1.736.611.9 6.752.9 6.752Z" fill="#ffb3a4"/><path d="M146.52 216.022a270.191 270.191 0 0 0 30.664 2.333 86.98 86.98 0 0 1 3.864 8.563c1.563 6.5 4.508 16.085 7.532 25.894l6.6 40.837c-6.318 4.1-20.9 6.71-35.241 7-2.413-4.825-5.254-10.546-8.1-16.8q-.579 7.76-1.563 16.6c-14.835-.905-27.173-4.741-26.478-12.6 4.1-46.068-4.382-70.87-7.266-77.1" fill="#2b303f"/><path d="M168.34 106.713s27.434 42.68-11.139 71c-36.193 26.566-41.7 21.069-41.7 21.069l-3.388 5.326s19.189 31.238 16.44 81.085c-.933 17.009 70.464 14.7 69.83 2.767s-20.7-69.909-18.293-74.02 32.945-31.059 35.176-55.559a64.217 64.217 0 0 0-6.22-33.883l-5.306-4.447s6.752 18.843 3.173 32.665c0 0-16.879-2.385-18.2-3.183s-4.606-28.158-13.458-41.831c-1.742-2.631-6.915-.989-6.915-.989Z" fill="#fff4de"/><g transform="translate(136.615 111.495)"><path d="M87.457 140.525h22.273a4.89 4.89 0 0 1 4.891 4.891v1.82a4.89 4.89 0 0 1-4.89 4.89H87.457Z" fill="#ffe6aa" stroke="#f1b104" stroke-miterlimit="10" stroke-width="2"/><path d="M76.197 134.454a3.74 3.74 0 0 0 3.9 1.675c2.646-.313 10.766-1.017 13.948 2.562 2.053 2.305 3.878 3.962 3.878 3.962a3.5 3.5 0 0 1-3.813.719c-3.822-1.675-8.656.294-10.266 1.171s-6.622 1.867-11.508-3.117 3.861-6.972 3.861-6.972Z" fill="#ffb3a4"/><path d="M27.254 102.488c14.718 17.266 43.548 38.041 46.376 39.973 2.245 1.535 6.93-1.451 4.051-5.646-3.057-4.447-23.127-40.356-34.835-52.895.219-15.539 1.5-61.024-7.41-75.719-7.2-11.872-24.63-4.009-28.363 6.594C2.098 28.948 1.282 56.719 20.06 91.956a66.1 66.1 0 0 0 7.194 10.532Z" fill="#ffb3a4"/><path d="M42.883 54.05c-10.14 4.251-26.524 5.763-35.185 6.309-5.254-20.117-3.967-36.021-.616-45.545C10.815 4.221 28.245-3.647 35.445 8.23c5.272 8.665 6.971 28.148 7.438 45.82Z" fill="#3a193f"/><path d="M1.887 55.562s27.355 1.829 41.532-4.373c0 0 3.309-52.843-21.993-51.15C-8.977 2.069 1.887 55.562 1.887 55.562Z" fill="#f1b104"/><circle cx="5.782" cy="5.782" transform="translate(81.675 140.525)" fill="#fff" stroke="#f1b104" stroke-miterlimit="10" stroke-width="2" r="5.782"/><rect width="7.28" height="2.819" rx="1.409" transform="translate(79.944 144.869)" fill="#ffe6aa" stroke="#f1b104" stroke-miterlimit="10" stroke-width="2"/></g><g transform="translate(177.85 263.858)"><rect width="342.517" height="9.109" rx="4.555" fill="#fff" stroke="#f1b104" stroke-miterlimit="10" stroke-width="2"/><rect width="8.782" height="168.199" transform="translate(322.833 9.104)" fill="#fff" stroke="#f1b104" stroke-miterlimit="10" stroke-width="2"/><rect width="8.778" height="168.199" transform="translate(10.906 9.104)" fill="#fff" stroke="#f1b104" stroke-miterlimit="10" stroke-width="2"/><path d="M10.906 9.104h8.778v3.757l-8.778-.938Zm320.705 0v3.99l-8.778-1.171V9.104Z" fill="#f1b104"/></g><path d="M204.775 84.689s-1.787-1.4-4.867 0" fill="none" stroke="#41465a" stroke-linecap="round" stroke-linejoin="round" stroke-width="2"/><ellipse cx="1.391" cy="1.073" rx="1.391" ry="1.073" transform="rotate(-80.04 154.08572841 -74.40924122)" fill="#242854"/><ellipse cx="1.391" cy="1.073" rx="1.391" ry="1.073" transform="rotate(-76.76 163.73756438 -86.57968523)" fill="#242854"/><path d="m208.677 88.752.387 7.028-2.375.863" fill="none" stroke="#e2564b" stroke-linecap="round" stroke-linejoin="round" stroke-width="2"/><path d="M200.473 96.564s0 3.122 2.333 3.9" fill="none" stroke="#41465a" stroke-linecap="round" stroke-linejoin="round" stroke-width="2"/><circle cx="3.906" cy="3.906" transform="translate(186.026 83.675)" fill="#ffb3a4" r="3.906"/><ellipse cx="1.176" cy=".975" rx="1.176" ry=".975" transform="rotate(-69.44 291.80781002 -148.60715318)" fill="#242854"/><ellipse cx="1.176" cy=".975" rx="1.176" ry=".975" transform="rotate(-69.44 296.57382056 -152.18051412)" fill="#242854"/><path d="m333.198 176.044-3.08 3.3 1.265 2.417" fill="none" stroke="#e2564b" stroke-linecap="round" stroke-linejoin="round" stroke-width="2"/><path d="M336.39 174.084a3.977 3.977 0 0 1 3.1 1.358m-8.593 8.591a4.9 4.9 0 0 0 5.021-.98" fill="none" stroke="#41465a" stroke-linecap="round" stroke-linejoin="round" stroke-width="2"/><path d="M347.491 166.372c-3.112.219-5.838-2.422-5.838-2.422s2.333-3 5.437-3.215 5.838 2.417 5.838 2.417-2.325 2.998-5.437 3.22Zm-11.218-6.133c1.493 2.739 5.184 3.607 5.184 3.607s1.269-3.575-.224-6.314-5.184-3.607-5.184-3.607-1.269 3.57.224 6.314Z" fill="#f1b104"/><circle cx="1.568" cy="1.568" transform="rotate(-18.91 657.95605444 -939.42837016)" fill="#f1b104" r="1.568"/><path d="M341.397 164.471s7.5 5.982 6.8 14.433a7.86 7.86 0 0 0 1.559 0 12.9 12.9 0 0 0-4.2-13.3" fill="#f1b104"/><path d="M512.667 247.651c0 7.056-3.911 13.066-9.408 15.427h-10.266c-5.5-2.333-9.408-8.372-9.408-15.427a16.92 16.92 0 0 1 7.518-14.438 2.879 2.879 0 0 0 1.353-2.431 2.865 2.865 0 0 0-1.325-2.417l-1.447-.933a.49.49 0 0 1 .271-.905h13.416a.933.933 0 0 1 .905 1.045l-.467 3.2a2.869 2.869 0 0 0 1.353 2.431 16.977 16.977 0 0 1 7.505 14.448Z" fill="#fff"/><path d="M510.688 247.73c0 7.21-3.981 13.36-9.576 15.763h-10.453c-5.6-2.4-9.576-8.554-9.576-15.763a17.312 17.312 0 0 1 7.653-14.751 2.935 2.935 0 0 0 1.4-2.483 2.93 2.93 0 0 0-1.348-2.469l-1.47-.933a.5.5 0 0 1 .271-.933h13.659a.933.933 0 0 1 .933 1.069l-.467 3.267a2.93 2.93 0 0 0 1.372 2.483 17.4 17.4 0 0 1 7.602 14.75Z" fill="none" stroke="#f1b104" stroke-miterlimit="10" stroke-width="2"/><path d="M505.77 235.318h2.427a7.882 7.882 0 0 1 7.877 7.882v3.444a6.039 6.039 0 0 1-6.039 6.067" fill="none" stroke="#f1b104" stroke-miterlimit="10" stroke-width="2"/></g></svg>