<svg xmlns="http://www.w3.org/2000/svg" width="468.137" height="405.473"><g transform="translate(79.324 149.207)"><path d="M181.399 136.63v1.728a4.617 4.617 0 0 1-4.621 4.617H51.185a29.013 29.013 0 0 1-28.318-22.692L.393 19.883A16.323 16.323 0 0 1 16.321-.003h43.546A21.808 21.808 0 0 1 81.16 17.052l20.541 91.778a29.654 29.654 0 0 0 28.943 23.178h46.134a4.621 4.621 0 0 1 4.621 4.622Z" fill="#d6eaf2"/><path d="M46.314 143.508h54.223a20.619 20.619 0 0 1 20.594 20.639v70.48a20.615 20.615 0 0 1-20.594 20.641h-64.37" fill="none" stroke="#639ad6" stroke-miterlimit="10" stroke-width="2"/><path d="M73.796 143.508h72.266a20.615 20.615 0 0 1 20.573 20.639v70.48a20.61 20.61 0 0 1-20.573 20.641H94.416" fill="none" stroke="#639ad6" stroke-miterlimit="10" stroke-width="2"/><line x2="45.521" transform="translate(121.131 215.831)" fill="none" stroke="#639ad6" stroke-miterlimit="10" stroke-width="2"/></g><path d="M211.573 115.532s21.022 1.4 31.272 20.643 23.042 45.492 23.042 45.492 36.11-1.012 62.827 15.665v11.99h-76.8c-9.542 0-40.324-36.431-42.122-60.033s1.781-33.757 1.781-33.757Z" fill="#f9c543"/><path d="M322.715 209.219c-1.543-.321-.411-5.271.49-8.324a5.248 5.248 0 0 1 3.292-3.267c3.185-1.448 8.69-3.086 11.8-2.386 4.559 1.029 7.489 3.909 10.34 7.324.823.979 4.826 5.674 4.826 6.929Z" fill="#a57574"/><path d="M171.973 107.632c-13.352.045-41.027 27.9-36.156 98.707 3.592 52.137 19.837 74.064 23.429 72.53s46.949-39.53 52.849-60.054 37.246-90.98-4.041-104.513c-28.811-9.44-31.81-6.683-36.081-6.67Z" fill="#f9c543"/><g transform="translate(259.76 383.764)"><path d="M47.093 21.046H.058c-.049-.72-.066-1.4-.053-2.057H47.15a10 10 0 0 1-.057 2.057Z" fill="#fff"/><path d="M4.846 0C5.015 5.131.057 8.382.057 18.985h47.035A10.541 10.541 0 0 0 38.369 8.04C28.963 5.991 20.408 3.25 19.553 0Z" fill="#a1cbe2"/><line y1="6.357" x2="4.292" transform="translate(19.886 3.23)" fill="none" stroke="#fff" stroke-linecap="round" stroke-miterlimit="10" stroke-width="2"/><line y1="5.839" x2="4.037" transform="translate(23.235 4.518)" fill="none" stroke="#fff" stroke-linecap="round" stroke-miterlimit="10" stroke-width="2"/><line y1="5.324" x2="3.263" transform="translate(27.618 5.291)" fill="none" stroke="#fff" stroke-linecap="round" stroke-miterlimit="10" stroke-width="2"/></g><path d="M214.025 222.624s71.789-4.489 89.235 16.047-16.422 93.724-19.841 138.192c0 0-17.179 1.712-24.153 0s-13.048-77.739 4.526-98.609c0 0-66.814 15.368-92.86-4.016s32.255-51.244 43.093-51.614Z" fill="#242854"/><path d="M259.431 385.402c2.469.728 9.83 2.7 24.392.387.753-.119 1.308-1.284 1.308-2.057v-5.654a1.543 1.543 0 0 0-1.765-1.526c-12.6 1.827-20.874.823-24.334.049a1.551 1.551 0 0 0-1.872 1.687l1.177 5.789a1.555 1.555 0 0 0 1.094 1.325Z" fill="#4e577d"/><g transform="translate(366.527 327.188)"><path d="M46.611 6.413 9.303 35.051c-.527-.642-1-1.276-1.432-1.889L45.035 4.635a10.49 10.49 0 0 1 1.576 1.778Z" fill="#fff"/><path d="M0 15.268c3.259 3.979 1.3 9.567 7.756 17.969L45.07 4.599a10.538 10.538 0 0 0-13.578-3.37c-8.707 4.1-17.162 7.135-19.82 5.078Z" fill="#a1cbe2"/><line x1=".461" y1="7.411" transform="translate(17.401 5.853)" fill="none" stroke="#fff" stroke-linecap="round" stroke-miterlimit="10" stroke-width="2"/><line x1=".461" y1="6.633" transform="translate(20.236 4.825)" fill="none" stroke="#fff" stroke-linecap="round" stroke-miterlimit="10" stroke-width="2"/><line x1=".461" y1="5.863" transform="translate(23.071 3.792)" fill="none" stroke="#fff" stroke-linecap="round" stroke-miterlimit="10" stroke-width="2"/></g><path d="M158.991 276.292c1.072 5.79 62.172 19.828 127.164-21.22 0 0 5.728 47.463 71.4 83.38 0 0 14.463-6.172 18.393-14.459 0 0-41.97-50.109-58.47-96.119-6.925-19.318-94.074-9.2-106.829-5.254s-56.448 27.856-51.658 53.672Z" fill="#242854"/><path d="M164.155 279.534c-3.168-1.119-4.966-2.3-5.143-3.246-4.3-23.166 30.477-44.8 46.858-51.845-16.204 9.431-43.854 33.699-41.715 55.091Z" fill="#383c4d"/><path d="M362.318 345.473c2.407-.93 9.13-4.25 19.273-14.953a1.547 1.547 0 0 0 .1-2.008l-3.44-4.481a1.543 1.543 0 0 0-2.329-.14c-8.884 9.122-15.661 13.035-18.866 14.545a1.547 1.547 0 0 0-.457 2.469l4.053 4.193a1.543 1.543 0 0 0 1.662.375Z" fill="#6874a7"/><path d="M175.557 122.954c13.883 4.608 30.9 53.273 30.9 53.273s24.392 4.621 57.49 18.475c0 0 1.773 8.719-2.588 14.619 0 0-65.679.514-72.089 0s-36.555-25.318-43.994-52.754 13.325-39.246 30.281-33.613Z" fill="#f9c543"/><path d="m269.31 173.092 13.936 34.51h2.395l-14.327-35.32a1.082 1.082 0 0 0-1.341-.621 1.086 1.086 0 0 0-.662 1.432Z" fill="#41465a"/><g fill="#a57574"><path d="M263.792 197.294s9.706-5.131 14.27-4.115 10.032 5.127 10.6 6.279 4.559 6.727 4.559 7.982-12.9.8-14.714.8-13.743.189-16.047-.288 1.332-10.658 1.332-10.658Z"/><path d="M278.511 208.239c1.815 0 14.714.457 14.714-.8s-3.991-6.843-4.559-7.982-6.044-5.246-10.6-6.271c0 0 5.629 7.818.449 15.052"/></g><path d="M261.356 209.321s-65.679.514-72.089 0-36.555-25.314-43.994-52.754m30.284-33.613c13.883 4.608 30.9 53.273 30.9 53.273s16.372 3.1 40.493 11.842" fill="none" stroke="#e59e38" stroke-miterlimit="10" stroke-width="2"/><path d="M342.189 209.416v-2.058a4.115 4.115 0 0 0-4.395-4.115l-75.1 4.682a1.51 1.51 0 0 0-1.4 1.506Z" fill="#a1cbe2"/><path d="M179.952 76.282s-1.646 20.767-14.1 33.921c0 0 13.945 11.056 29.091 2.806l1.646-36.649Z" fill="#a57574"/><path d="M216.363 71.764s-3.7 9.052-2.37 25.754-25.194 7.995-25.643-3.551 1.35-22.063 4.349-22.219 23.664.016 23.664.016Z" fill="#a57574"/><g transform="translate(175.94 55.538)"><path d="M0 34.302a34.226 34.226 0 0 0 1.189-20.08C-.868 6.486 7.46 1.989 14.508 6.116c0 0 26.544-14.624 32.531 1.354 7.217 19.257-27.733 9.513-28.334 10.266s-2.6 15.739 1.152 20.837 7.9-.029 13.29-.379c5.588-.366 4.9 3.333 4.9 3.333s1.671 8.982 2.271 12.43-20.775 9.27-26.416.514c-5.119-7.941-1.852-24-3.946-25.338-4.345-2.769-7.867 2.127-5.456 4.078.006 0-2.64 1.601-4.5 1.091Z" fill="#242854"/><path d="M45.356 19.414c-8.229 4.427-25.346-1.127-26.877-2.131" fill="#242854"/><path d="M7.057 2.796c2.88-.226 6.007.905 7.452 3.58" fill="#4e2556"/><ellipse cx="1.251" cy="1.568" rx="1.251" ry="1.568" transform="translate(26.379 27.582)" fill="#242854"/><ellipse cx=".95" cy="1.568" rx=".95" ry="1.568" transform="translate(35.576 27.582)" fill="#242854"/></g><g transform="translate(179.363 79.228)" fill="none" stroke="#fff" stroke-miterlimit="10" stroke-width="2"><ellipse cx="4.859" cy="5.238" rx="4.859" ry="5.238" transform="translate(18.833)"/><ellipse cx="4.102" cy="5.238" rx="4.102" ry="5.238" transform="translate(30.897)"/><line x2="2.341" transform="translate(28.552 5.012)"/><path d="M18.578 4.752 4.699 4.559a6.415 6.415 0 0 0-4.7 2.057"/></g><path d="M449.965 209.696v195.12h-13.126V222.583H13.126v182.233H0v-195.12Z" fill="#fff4de"/><path d="M435.017 179.585H296.5a6.637 6.637 0 0 1-6.4-8.378l22.981-84.639c1.234-4.473 5.271-8.1 9.9-8.1h138.518c4.374 0 7.55 4.678 6.4 8.9l-22.978 84.643a10.262 10.262 0 0 1-9.904 7.574Z" fill="#fff"/><path d="M435.02 179.585H300.47a6.456 6.456 0 0 1-6.221-8.151l22.306-82.372a9.978 9.978 0 0 1 9.624-7.369h134.55a6.46 6.46 0 0 1 6.225 8.151l-22.326 82.372a9.978 9.978 0 0 1-9.608 7.369Z" fill="#d4d1f4"/><path d="M435.02 179.585H300.47a6.456 6.456 0 0 1-6.221-8.151l22.306-82.372a9.978 9.978 0 0 1 9.624-7.369h134.55a6.46 6.46 0 0 1 6.225 8.151l-22.326 82.372a9.978 9.978 0 0 1-9.608 7.369Z" fill="#ebf4f7"/><path d="m310.667 110.792 5.888-21.73a9.978 9.978 0 0 1 9.624-7.369h80.623m37.843 90.523a9.978 9.978 0 0 1-9.624 7.369H300.47a6.456 6.456 0 0 1-6.221-8.151l11.768-43.422" fill="none" stroke="#639ad6" stroke-linecap="round" stroke-linejoin="round" stroke-width="2"/><path d="m404.659 202.216-13.373-46.438h-31.309l12.459 43.241c1.016 3.522-1.938 6.958-5.979 6.958h-8.641a1 1 0 0 0-1.045.938v1.806a1 1 0 0 0 1.045.938h40.62c4.211.001 7.276-3.789 6.223-7.443Z" fill="#d6eaf2"/><path d="M368.959 208.038h-12.171v-1.119a1 1 0 0 1 1.045-.938h8.62c4.045 0 6.995-3.436 5.983-6.958l-12.459-43.245h2.238l12.714 44.5a6.172 6.172 0 0 1-5.97 7.76Z" fill="#fff"/><path d="M359.977 155.778v23.853h6.872Zm-40.242 15.43h-6.876l-.527 1.909h6.881Zm14.213 0h-6.349l-.523 1.909h6.345Z" fill="#a1cbe2"/><path d="M398.717 209.008c4.193 0 7.258-3.115 6.2-6.769l-13.38-46.441m-61.025 16.364h3.358a2.1 2.1 0 0 1 2.1 2.1v63.313a5.707 5.707 0 0 0 5.707 5.707 5.707 5.707 0 0 0 5.7-5.707v-28.3a2.1 2.1 0 0 0-2.1-2.1h-3.09" fill="none" stroke="#639ad6" stroke-miterlimit="10" stroke-width="2"/><g transform="translate(39.044 155.946)"><rect width="24.392" height="24.392" rx="8.99" transform="translate(5.473 28.984)" fill="#f9c543"/><path d="M16.422 28.984S13.394 6.403 35.522 0c0 0-9.55 9.41-12.459 28.984Z" fill="#a1cbe2"/><path d="M20.302 28.983S17.669 9.195.002 7.871c0 0 11.11 4.654 11.237 21.112Z" fill="#a1cbe2"/><path d="M14.323 28.984s-2.284-16.092 5.349-23.746c0 0-1.9 13.838.621 23.746Z" fill="#d6eaf2"/><path d="M17.668 28.984s7.485-4.18 6.995-11.871c0 0 4.213 6.847.864 11.871Zm-7.859 0s-2.123-6.044-7.361-7.908c0 0 9.546-.251 11.875 7.908Z" fill="#d6eaf2"/></g><path d="m209.91 85.178 3.378 6.583-2.864 1.86" fill="#a57574" stroke="#4e2556" stroke-linecap="round" stroke-linejoin="round" stroke-width="2"/><g transform="translate(10.25)"><path d="M.287 69.448h137.159v12.558L.262 70.418c-.366-.04-.341-.97.025-.97Z" fill="#fff4de"/><g transform="translate(62.711)"><rect width="10.007" height="51.495" rx="5.003" transform="translate(52.055 7.336)" fill="#fff" stroke="#f1b104" stroke-miterlimit="10" stroke-width="2"/><rect width="11.027" height="48.158" rx="5.03" transform="translate(40.41 11.694)" fill="#f1b104"/><rect width="5.719" height="59.852" rx="2.86" transform="translate(34.691)" fill="#d6eaf2"/><rect width="9.184" height="44.06" rx="4.592" transform="translate(25.095 15.179)" fill="#fff" stroke="#f1b104" stroke-miterlimit="10" stroke-width="2"/><path d="M8.015 59.852H0L20.051 6.127a1.1 1.1 0 0 1 1.02-.716h5.686a1.111 1.111 0 0 1 1.02 1.5Z" fill="#f1b104"/></g><rect width="136.463" height="9.003" transform="translate(.588 59.852)" fill="#fff" stroke="#f1b104" stroke-miterlimit="10" stroke-width="2"/><path d="M14.376 39.892H48.82v3.781a16.183 16.183 0 0 1-16.183 16.183h-2.082a16.183 16.183 0 0 1-16.179-16.183v-3.781Z" fill="#f1b104"/><path d="M45.368 39.892H19.857s-7.46 6.086-11.723 1.094c-3.086-3.613 11.682-3.777 11.682-3.777l.444-.152s-6.337-13.3-.35-15.516c4.135-1.539 5.135 9.731 5.349 13.389 2.177-.909 6.427-2.222 6.789 1.234 0 0 .473-14.233 6.435-12.875 4.938 1.132-2.395 14.508-2.395 14.508l.518.313s13.62-9.949 16.961-7.637c2.528 1.75-8.199 9.419-8.199 9.419Z" fill="#a1cbe2"/><path d="M23.762 39.892s.263-12.27 4.884-11.933-1.819 11.933-1.819 11.933Zm0 0S19.129 28.313 12.85 31.28c-6.135 2.88 7.061 8.612 7.061 8.612Zm9.525-.004s4.172-10.431 10.756-9.439-8.147 9.439-8.147 9.439Zm6.781.004s12.9-6.5 15.224-2.58-15.224 2.58-15.224 2.58Z" fill="#d6eaf2"/></g></svg>