<svg xmlns="http://www.w3.org/2000/svg" width="872" height="524"><defs><style>.aj,.an,.ap,.at,.aw,.c,.f,.h,.i,.x{fill:none}.b{opacity:.4}.c,.s{stroke:#d7639f}.aa,.aj,.an,.ap,.at,.aw,.c,.f,.g,.h,.i,.j,.l,.m,.s,.x{stroke-miterlimit:10;stroke-width:2px}.aa,.d,.g,.j,.l,.m,.s{fill:#fff}.e{fill:#e7f0fd}.f,.g{stroke:#ffe94c}.h,.m{stroke:#da71ab}.i,.j{stroke:#feed3a}.k{fill:#da71ab}.l{stroke:#96bed5}.o{fill:#cbc253}.p{fill:#96bed5}.q{fill:#feed3a}.t{fill:#79b6e4}.u{fill:#d1e2fb}.x{stroke:#fff}.an{stroke:#6464c8}.aa{stroke:#e3b03d}.ab{fill:#d28e46}.ac{fill:#94bcd3}.ad{fill:#cfe0f9}.ae{fill:#c97c2d}.ag{fill:#e38e32}.ah{fill:#d49046}.ai{fill:#cb7c2d}.aj{stroke:#40465c}.aj,.at,.aw{stroke-linecap:round}.aj,.at{stroke-linejoin:round}.ak{fill:#40465c}.al{fill:#41465a}.am{fill:#6464c8}.ap,.at{stroke:#41465a}.av{fill:#32323c}.aw{stroke:#cb7c2d}</style></defs><path style="fill:none" d="M0 0h872v524H0z"/><g class="b"><path class="c" d="M79.432 430.771h747.227"/><path class="d" d="M188.362 438.726h-58.338l27.215-7.484h58.338ZM304.601 438.726h-58.355l27.215-7.484h58.338ZM420.824 438.726h-58.338l27.2-7.484h58.355ZM537.046 438.726h-58.338l27.215-7.484h58.338ZM653.285 438.726H594.93l27.215-7.484h58.338Z"/><g><path class="d" d="M219.275 446.21h-58.338l27.2-7.484h58.355ZM103.402 446.21H45.064l27.2-7.484h58.355ZM335.497 446.21h-58.338l27.215-7.484h58.338ZM451.737 446.21h-58.355l27.215-7.484h58.338ZM567.959 446.21h-58.338l27.2-7.484h58.355ZM684.181 446.21h-58.338l27.215-7.484h58.338Z"/></g><g><path class="d" d="M164.81 461.353h-58.338l27.2-7.484h58.338ZM281.032 461.353h-58.338l27.2-7.484h58.355ZM397.271 461.353h-58.355l27.215-7.484h58.338ZM513.494 461.353h-58.338l27.2-7.484h58.338ZM629.716 461.353h-58.338l27.2-7.484h58.355Z"/></g><g><path class="d" d="M133.949 453.694H75.611l27.215-7.484h58.338ZM250.188 453.694h-58.355l27.215-7.484h58.338ZM366.411 453.694h-58.338l27.2-7.484h58.355ZM482.633 453.694h-58.338l27.215-7.484h58.338ZM598.872 453.694h-58.355l27.215-7.484h58.338ZM768.548 438.726H710.21l27.2-7.484h58.355ZM799.462 446.21h-58.356l27.215-7.484h58.338ZM744.996 461.353h-58.355l27.215-7.484h58.338ZM714.135 453.694h-58.338l27.2-7.484h58.355Z"/></g></g><path class="c" d="M317.022 384.278H92.69a10.641 10.641 0 0 1-10.467-8.723l-5.879-31.8a10.443 10.443 0 0 1 10.275-12.334H264.25a11.823 11.823 0 0 1 11.636 9.734l6.141 34.4a10.641 10.641 0 0 0 10.467 8.723"/><path class="d" d="M164.689 382.831v.907H95.482v-.907a8.283 8.283 0 0 1 8.287-8.287h52.651a8.291 8.291 0 0 1 8.269 8.287ZM240.454 383.738h-69.206v-.227a8.964 8.964 0 0 1 8.967-8.967h51.272a8.964 8.964 0 0 1 8.967 8.967ZM316.238 383.738h-69.207v-.227a8.964 8.964 0 0 1 8.967-8.967h51.272a8.964 8.964 0 0 1 8.967 8.967v.227Z"/><path class="e" d="M118.143 382.831v.907H95.464v-.907a8.283 8.283 0 0 1 8.287-8.287h6.106a8.283 8.283 0 0 1 8.286 8.287ZM193.927 382.831v.907h-22.679v-.907a8.283 8.283 0 0 1 8.287-8.287h6.106a8.283 8.283 0 0 1 8.286 8.287ZM269.71 382.831v.907h-22.679v-.907a8.283 8.283 0 0 1 8.287-8.287h6.106a8.294 8.294 0 0 1 8.286 8.287ZM129.936 361.411H89.693a8.773 8.773 0 0 1-8.636-7.188l-4.85-26.238a8.614 8.614 0 0 1 8.479-10.171h40.247a8.773 8.773 0 0 1 8.636 7.188l4.85 26.238a8.614 8.614 0 0 1-8.483 10.171ZM203.366 361.411h-40.244a8.773 8.773 0 0 1-8.636-7.188l-4.85-26.238a8.614 8.614 0 0 1 8.479-10.171h40.247a8.773 8.773 0 0 1 8.635 7.188l4.85 26.238a8.614 8.614 0 0 1-8.481 10.171Z"/><path class="d" d="M129.936 361.411H93.06a8.773 8.773 0 0 1-8.636-7.188l-4.85-26.238a8.614 8.614 0 0 1 8.479-10.171h36.88a8.773 8.773 0 0 1 8.636 7.188l4.85 26.238a8.614 8.614 0 0 1-8.483 10.171ZM203.365 361.411h-36.876a8.773 8.773 0 0 1-8.636-7.188l-4.85-26.238a8.614 8.614 0 0 1 8.479-10.171h36.88a8.773 8.773 0 0 1 8.636 7.188l4.85 26.238a8.614 8.614 0 0 1-8.483 10.171Z"/><path class="c" d="M77.478 349.44h19.12c10.694 0 20.062 8.3 22.819 20.254l3.367 14.584M284.906 349.44h5.426c10.694 0 20.062 8.3 22.819 20.254l3.367 14.584"/><path class="e" d="M276.793 361.411H236.55a8.773 8.773 0 0 1-8.635-7.188l-4.85-26.238a8.614 8.614 0 0 1 8.478-10.171h40.247a8.773 8.773 0 0 1 8.635 7.188l4.85 26.238a8.614 8.614 0 0 1-8.482 10.171Z"/><path class="d" d="M276.793 361.411h-36.876a8.773 8.773 0 0 1-8.636-7.188l-4.85-26.238a8.614 8.614 0 0 1 8.478-10.171h36.88a8.773 8.773 0 0 1 8.636 7.188l4.85 26.238a8.614 8.614 0 0 1-8.482 10.171Z"/><path class="c" d="m88.416 430.858 13.136-46.475h17.62l13.137 46.475M272.345 430.858l13.137-46.475h17.62l13.136 46.475"/><g class="b" transform="translate(391.846 131.336)"><path class="d" d="M40.77 50.208H7.013A7.014 7.014 0 0 1 0 43.195V9.438a7.014 7.014 0 0 1 7.013-7.013H40.77a7.014 7.014 0 0 1 7.013 7.013v33.757a7.014 7.014 0 0 1-7.013 7.013Z"/><path class="f" d="M43.247 47.783H9.49a7.013 7.013 0 0 1-7.013-7.013V7.013A7.013 7.013 0 0 1 9.49 0h33.757a7.013 7.013 0 0 1 7.013 7.013V40.77a7.013 7.013 0 0 1-7.013 7.013Z"/><path class="g" d="M25.191 0h2.373v7.031h-2.373zM25.191 40.735h2.373v7.031h-2.373z"/><path class="f" d="M2.488 25.067v-2.373h7.031v2.373z"/><path class="g" d="M43.238 25.081v-2.373h7.031v2.373z"/><path class="f" d="m22.191 14.462 4.065 9.211-11.3 9.926"/><circle class="g" cx="1.186" cy="1.186" r="1.186" transform="translate(25.191 22.697)"/></g><g><path class="h" d="M529.055 60.856v55.424M633.536 60.856v55.424M738 60.856v55.424"/><path class="i" d="M507.161 127.899c0-8.391 6.839-11.619 15.265-11.619h221.628c8.426 0 15.265 3.681 15.265 12.09"/><path class="d" d="M625.913 127.201H517.96a3.213 3.213 0 0 1-3.21-3.21 3.213 3.213 0 0 1 3.21-3.21h107.953a3.212 3.212 0 0 1 3.21 3.21 3.2 3.2 0 0 1-3.21 3.21ZM748.747 127.201H640.794a3.213 3.213 0 0 1-3.21-3.21 3.213 3.213 0 0 1 3.21-3.21h107.953a3.213 3.213 0 0 1 3.21 3.21 3.213 3.213 0 0 1-3.21 3.21Z"/></g><g class="b"><path class="j" d="M671.812 206.735h41.957v8.112h-41.957z"/><path class="k" d="M678.372 203.054h42.375v3.175h-42.375z"/><path class="l" d="M674.429 198.362h42.375v4.152h-42.375z"/><path class="d" d="M671.882 193.093h37.368v4.728h-37.368z"/><path class="m" d="M720.886 221.669H642.05l-15.527-22.609h-72.451v-5.967h75.522l15.527 22.609h75.766Z"/><g><path class="d" d="M654.349 215.319a10.721 10.721 0 0 1-10.729-10.729v-1.71h21.458v1.71a10.743 10.743 0 0 1-10.729 10.729Z"/><path d="M3674.341 1104.905s-4.641 3.786-7.31.68c-1.919-2.25 5.688-2.25 5.688-2.25s-4.012-3.21-2.739-3.786c3.123-1.431 4.955 3.367 4.955 3.367s-4.309-8.042-.576-9.421c3.071-1.134 3.071 7.153 3.071 7.153s.645-3.367 2.39-3.14c1.727.209.488 3.786.488 3.786s1.518-1.03 1.622 1.308c0 0 .3-8.862 4.012-8.025 3.088.7-1.029 6.769-1.029 6.769s2.39-2.983 4.5-2.059-1.9 3.681-1.9 3.681 5.74-5.356 7.815-3.925c1.588 1.1-2.442 3.786-2.442 3.786s2.878-.8 3.524.611-4.03 1.483-4.03 1.483h-18.039Z" transform="translate(-3027.319 -902.008)" style="fill:#91882a"/><path class="o" d="M649.465 202.897s.157-7.641 3.036-7.415-1.134 7.415-1.134 7.415ZM649.464 202.897s-2.878-7.205-6.8-5.356c-3.82 1.8 4.4 5.356 4.4 5.356ZM655.396 202.897s2.582-6.49 6.7-5.879-5.076 5.879-5.076 5.879ZM659.618 202.9s8.042-4.047 9.49-1.605c1.431 2.422-9.49 1.605-9.49 1.605Z"/></g><g transform="translate(564.155 151.869)"><path class="l" d="M0 0h11.008v41.241H0z"/><path class="p" d="M2.966 14.166h5.059v1.308H2.966zM2.966 17.637h5.059v1.308H2.966zM2.966 21.127h5.059v1.308H2.966zM2.966 24.598h5.059v1.308H2.966z"/><circle class="p" cx="2.477" cy="2.477" r="2.477" transform="translate(3.018 31.629)"/><g transform="translate(11.968)"><path class="j" d="M0 0h11.008v41.241H0z"/><path class="q" d="M2.983 14.166h5.059v1.308H2.983zM2.983 17.637h5.059v1.308H2.983zM2.983 21.127h5.059v1.308H2.983zM2.983 24.598h5.059v1.308H2.983z"/><circle class="q" cx="2.477" cy="2.477" r="2.477" transform="translate(3.036 31.629)"/></g><g transform="translate(23.953)"><path style="stroke:#96bed5;fill:#e7f0fd;stroke-miterlimit:10;stroke-width:2px" d="M0 0h11.008v41.241H0z"/><path class="d" d="M2.966 13.991h5.059v1.308H2.966zM2.966 17.463h5.059v1.308H2.966zM2.966 20.952h5.059v1.308H2.966zM2.966 24.424h5.059v1.308H2.966z"/><circle class="d" cx="2.477" cy="2.477" r="2.477" transform="translate(3.018 31.454)"/></g><g transform="translate(35.92)"><path class="s" d="M0 0h11.008v41.241H0z"/><path class="k" d="M2.983 14.166h5.059v1.308H2.983zM2.983 17.637h5.059v1.308H2.983zM2.983 21.127h5.059v1.308H2.983zM2.983 24.598h5.059v1.308H2.983z"/><circle class="k" cx="2.477" cy="2.477" r="2.477" transform="translate(3.036 31.629)"/></g></g></g><g><path class="d" d="M790.302 401.132a38.661 38.661 0 0 1 2.669 11.758l-.873.052a35.39 35.39 0 0 0-1.413-7.938l-6.315-3.559c2.791-.489 4.5.209 5.53 1.169a48.352 48.352 0 0 0-1.64-4.012l-10.922-5.129c5.042-.506 8.13 1.291 9.875 2.966a59.164 59.164 0 0 0-2.216-3.96l-13.869-3.594c5.146-1.326 9.42-.942 12.194 1.012a.725.725 0 0 1-.087-.122 73.1 73.1 0 0 0-3.245-4.414l-13.974-1.552c6.124-2.792 10.519-1.256 12.84.157a66.1 66.1 0 0 0-3.209-3.594c-3.437-2.128-13.834-8.706-12.788-9.6 1.187-1.012 6.839-2.285 12.928 8.5a62.359 62.359 0 0 1 4.78 5.426c-1.762-3.8-3.21-9.211-.75-14.235l3.506 17.934c.192.279.4.576.593.855a51.534 51.534 0 0 1 1.954 3.071c-1.623-4.135-2.617-9.8.331-14.427l1.571 17.812c.418.8.82 1.64 1.221 2.495-.75-3.926.209-7.223 2.966-11.148Z"/><path class="d" d="M794.976 389.407c1.57 16.73 2.093 26.535 2.111 26.779l-.873.052c-.017-.262-.662-12.3-2.651-32.5v-.017a42.236 42.236 0 0 1-.454-4.5q-.524-5.024-1.134-10.624c-.018-.157-.052-.314-.07-.471-5.9-15.823-12.77-16.818-12.77-16.818 6.158.314 9.647 3.123 11.583 6.525-.262-2.111-.523-4.292-.8-6.49-5.129-14.166-14.794-16.591-14.794-16.591 7.17-1.326 11.183 1.745 13.4 5.9-.227-1.727-.471-3.454-.715-5.216-2.687-3.28-9.944-11.6-17.044-15.282 0 0 11.2.087 16 7.9a92.92 92.92 0 0 0-.331-2.233c-2.652-5.321-9.055-17.01-15.894-20.551a17.824 17.824 0 0 1 14.236 9.543c-.279-1.814-.576-3.663-.873-5.513-3.715-4.85-15.178-19.242-21.824-21.179 0 0 14.148-2.111 20.585 13.555-.366-2.215-.75-4.466-1.134-6.716-3.017-5.932-10.153-18.231-17.288-18.231 0 0 9.909-3.7 15.492 7.938-.437-2.39-.872-4.8-1.326-7.223-5.425-1.256-4.623-32.117-3.384-32.187 0 0 7.1 29.832 4.257 32.082q1.125 5.993 2.145 11.863a.407.407 0 0 1 .035.139c-2.093-21.667 10.5-21.371 10.5-21.371-8.094 9.3-8.827 31.245-8.827 31.245-.018-.035-.018-.087-.035-.122q.758 4.5 1.465 8.9c.018.1.052.209.07.332-2.391-25.715 14.479-24.79 14.479-24.79-8.757 7.38-13.171 26.709-13.765 29.431.262 1.692.524 3.367.785 5.042.192.541.349 1.1.506 1.692-.3-20.324 15.195-19.731 15.195-19.731-10.275 7.118-13.695 27.494-14.009 29.5.052.419.123.837.175 1.239l.209.628c.7-15.282 15.317-17.149 15.317-17.149-14.148 7.938-13.869 27.965-13.869 27.965a5.6 5.6 0 0 0-.174-.593c.1.715.192 1.413.279 2.111a24.057 24.057 0 0 1 .646 2.373c.436-15.963 9.507-13.834 9.507-13.834-4.4 4.466-6.42 14.392-7.327 21.388 2.738-7 9.036-5.966 9.036-5.966-5.164 4.571-7.03 16.887-7.693 23.918 2.2-6.3 7.693-5.408 7.693-5.408-5.285 4.704-6.419 19.271-6.648 23.266ZM813.958 366.292c-.192.82-.4 1.64-.593 2.442 4.833-9.194 12.927-8.862 12.927-8.862a42.049 42.049 0 0 0-15.562 20.272c-.227 1.012-.454 2.006-.663 2.966-.14.646-.279 1.273-.419 1.9 4.693-10.816 13.677-10.45 13.677-10.45a42.3 42.3 0 0 0-16.081 21.774v.018a1193.888 1193.888 0 0 0-3.28 16.329l-.854-.157c.018-.052.436-2.32 1.186-6.071-.3-3.4-1.2-11.235-3.35-14.026 0 0 3.8.89 4.624 6.106-.175-5.775-.925-16.189-4.135-20.5 0 0 6 2.669 5.966 13.311.262-1.221.523-2.46.8-3.733.07-5.53-.122-21.737-4.553-27.93 0 0 7.606 3.559 6.892 17.341.191-.82.366-1.64.558-2.477.087-4.2.209-22.3-4.536-28.925 0 0 8.548 3.995 6.682 19.888a372.31 372.31 0 0 1 1.4-5.6c-.541-4.989-2.286-20.743-2.948-22.365-.872-2.128 5.042 5.827 4.03 18.2.75-2.844 1.518-5.583 2.268-8.147-.471-4.292-1.8-16.207-2.3-17.463-.7-1.692 4.013 4.64 3.21 14.515a141.85 141.85 0 0 1 1.954-5.827c.837-6.263 3.245-21.127 7.013-20.359 2.46.506-3.209 13.887-5.949 20.027-.854 2.286-1.745 4.99-2.651 7.955 2.076-4.449 5.739-9.072 11.95-8.967 0 0-7.31 2.32-13.974 16.05a437.48 437.48 0 0 0-1.413 5.338c2.547-5.827 7.205-12.212 15.387-12.072-.009-.022-8.959 2.821-17.263 19.499Z"/><path class="q" d="M808.445 430.056H786.83a7.125 7.125 0 0 1-7.118-7.118v-4.658a7.125 7.125 0 0 1 7.118-7.118h21.615a7.125 7.125 0 0 1 7.117 7.118v4.64a7.128 7.128 0 0 1-7.117 7.136Z"/></g><g class="b"><path class="d" d="M218.612 120.275h101.184v135.133H218.612z"/><path class="h" d="M222.485 116.734h101.184v135.133H222.485z"/><path class="t" d="M313.22 173.031v29.937l-9.281-4.78c-1.326 0-8.409 47.626-8.409 47.626h-48.848s-7.083-47.626-8.409-47.626l-8.548 4.483v-30.234c0-7.188 16.608-11.444 21.615-14.183 8.165-4.466 10.153-10.258 9.927-15.788h.314c-.209-.035-.331-.052-.331-.052-1.047-6.612-3.506-8.478-3.542-15.021h31.367c-.471 5.46-.767 11.148-4.588 15.143-.8.837-2.408 1.291-4.414 1.483.175 5.286 3.105 11.287 10.8 14.218 6.506 2.512 22.347 8.723 22.347 14.794Z"/><path class="e" d="M278.834 165.267c-4.763 0-5.513 24.337-4.239 33.513.942 6.786 16.434 10.467 18.894 7.31 5.669-7.275-5.566-40.823-14.655-40.823ZM264.145 165.267c4.763 0 5.513 24.337 4.239 33.513-.942 6.786-16.713 10.659-18.894 7.31-5.966-9.142 5.566-40.823 14.655-40.823ZM279.584 211.62c.122-2.355-10.537-5.216-23.621-1.343-10.1 3-7.048 18.946-2.826 18.928 2.094-.017 3.507-4.414 7.554-4.361 9.927.157 14.759-3.559 15.736-9.769.366-2.356 3.07-1.571 3.157-3.455ZM273.426 223.972c-.541 2.373 14.515 1.151 16.381-5.966 1.657-6.3-4.833-7.659-7.938-4.5-2.2 2.233-2.024 2.914-3.751 6.071-2.093 3.802-4.378 3.104-4.692 4.395Z"/><path class="e" d="M290.313 221.704a15.784 15.784 0 0 1-7.083 4.972 24.45 24.45 0 0 1-9.473 1.047c-6.56-.227-14.393-1.012-19.173 4.466a13.5 13.5 0 0 0-3.419 9.8 2.128 2.128 0 0 0 2.076 2.076 2.081 2.081 0 0 0 2.076-2.076 9.188 9.188 0 0 1 2.268-6.943 10.425 10.425 0 0 1 7.606-3.21c6.525-.366 13.363 1.151 19.626-1.326a20.509 20.509 0 0 0 9.072-6.7 2.083 2.083 0 0 0-.75-2.844 2.113 2.113 0 0 0-2.826.733Z"/><path class="d" d="M85.904 120.275h101.184v135.133H85.904z"/><path class="h" d="M89.777 116.734h101.184v135.133H89.777z"/><g transform="translate(101.326 126.695)"><circle class="t" cx="20.132" cy="20.132" r="20.132"/><path class="u" d="m29.587 2.373-9.455 17.76V0a19.845 19.845 0 0 1 9.455 2.373Z"/><path class="p" d="M40.264 20.132H20.132l9.455-17.76a20.112 20.112 0 0 1 10.677 17.76Z"/><path d="M649.164 838a20.136 20.136 0 0 1-34.664 13.939l14.532-13.922h20.132Z" transform="translate(-608.9 -817.868)" style="fill:#c1c1e9"/><path d="m615.493 838-14.532 13.921a20.292 20.292 0 0 1-2.861-3.8Z" transform="translate(-595.361 -817.868)" style="fill:#8383d3"/><path class="x" d="m32.71 11.985 9.4-6.839h7.7M32.71 27.093l17.009 10.851"/></g><path class="d" d="M138.816 179.381h40.334v55.145h-40.334zM101.326 239.865h77.825v3.35h-77.825z"/><g><path class="t" d="M101.326 179.381h32.693v4.065h-32.693zM101.326 187.894h32.693v4.065h-32.693zM101.326 196.408h32.693v4.065h-32.693zM101.326 204.921h32.693v4.065h-32.693zM101.326 213.435h32.693v4.065h-32.693zM101.326 221.948h32.693v4.065h-32.693zM101.326 230.462h32.693v4.065h-32.693z"/><g><path class="t" d="M152.878 129.068h26.273v2.617h-26.273zM152.878 133.342h26.273v2.617h-26.273zM152.878 137.616h17.864v2.617h-17.864z"/></g><g><path class="t" d="M152.878 165.791h26.273v2.617h-26.273zM152.878 170.065h26.273v2.617h-26.273z"/></g></g></g><g><g transform="translate(674.681 302.53)"><path class="k" d="m76.155 36.81-7.327 23.953a11.281 11.281 0 0 1-10.537 8.339H16.823c-4.78 0-9.02-3.35-10.537-8.339L.25 41.063c-1.047-3.437 1.274-7 4.571-7h4.641a4.552 4.552 0 0 0 4.344-4.152l2.7-21.126c.646-5.042 4.571-8.792 9.194-8.792h37.333c5.653 0 9.979 5.5 9.194 11.636l-2.321 18.23a3.59 3.59 0 0 0 3.332 4.2h1.116a2.064 2.064 0 0 1 1.801 2.751Z"/><path transform="translate(34.342 68.439)" style="stroke:#6464c8;fill:#fff;stroke-miterlimit:10;stroke-width:2px" d="M0 0h6.071v45.184H0z"/><path d="M4023.08 2387.819v-2.093c0-2.164-2.494-3.926-5.565-3.926h-21.65c-3.07 0-5.565 1.762-5.565 3.926v2.093" transform="translate(-3969.129 -2268.177)" style="stroke:#6464c6;stroke-miterlimit:10;stroke-width:2px;fill:none"/><circle class="aa" cx="4.257" cy="4.257" r="4.257" transform="translate(17.036 119.641)"/><circle class="aa" cx="4.257" cy="4.257" r="4.257" transform="translate(49.625 119.641)"/></g><path class="ab" d="M658.64 409.558c-.541 2.041-2.53 9.054-1.814 11.566s2.7 4.361 2.146 6.926c-.575 2.722-16.591.994-17.079.89s8.5-5.094 8.6-8.81a72.852 72.852 0 0 0-1.082-10.572Z"/><path class="ac" d="M639.346 430.894h19.783a.856.856 0 0 0 .855-.855.856.856 0 0 0-.855-.855h-19.783a.856.856 0 0 0-.855.855.856.856 0 0 0 .855.855Z"/><path class="ad" d="M653.512 429.307a10.871 10.871 0 0 0-5.007-3.28c-3.21-.82-4.762-.384-6.49.489a6.942 6.942 0 0 0-2.617 2.669ZM653.581 429.254s-.174-5.932 3.751-6.717c0 0 3.769 3.367 1.692 6.717Z"/><path class="ae" d="M658.641 409.558h-9.211s.227 1.308.471 3.105a19.822 19.822 0 0 0 8.269-1.361c.192-.715.366-1.326.471-1.744Z"/><path d="M3725.981 1960.854c-5.094 0-10.311-.052-17.2-.157a127.93 127.93 0 0 1 1.587 19.347c-.122 5.687-1.291 6.455-1.256 8.862.087 3.855-2.5 5.129-1.658 7.885 1.4 4.623-3.175 4.379-3.175 4.379s-6 1.1-10.537 0l-4.641-47.713c-1.326-4.431 4.519-9.787 10.31-12.369 9.962-4.466 47.749-21.51 52.686-5.932 1.309 4.152-2.914 25.733-26.116 25.698Z" transform="translate(-3045.638 -1591.612)" style="fill:#c5d7f9"/><g><path class="ab" d="M686.727 409.558c-.541 2.041-2.53 9.054-1.814 11.566s2.7 4.361 2.146 6.926c-.576 2.722-16.591.994-17.079.89s8.5-5.094 8.6-8.81a72.864 72.864 0 0 0-1.082-10.572Z"/><path class="ac" d="M667.432 430.894h19.783a.856.856 0 0 0 .855-.855.856.856 0 0 0-.855-.855h-19.783a.856.856 0 0 0-.854.855.856.856 0 0 0 .854.855Z"/><path class="ad" d="M681.599 429.307a10.871 10.871 0 0 0-5.007-3.28c-3.21-.82-4.762-.384-6.49.489a6.942 6.942 0 0 0-2.617 2.669ZM681.669 429.254s-.175-5.932 3.75-6.717c0 0 3.768 3.367 1.692 6.717Z"/><path class="ae" d="M686.728 409.558h-9.211s.227 1.308.471 3.105a19.823 19.823 0 0 0 8.269-1.361c.192-.715.366-1.326.471-1.744Z"/><path class="ad" d="M704.941 369.242c-5.094 0-10.31-.052-17.2-.157a127.867 127.867 0 0 1 1.588 19.347c-.122 5.687.454 6.455.488 8.862.087 3.856-.75 5.129.087 7.885 1.4 4.623-3.175 4.379-3.175 4.379s-6 1.1-10.537 0l-8.13-47.714c-1.326-4.431 1.029-9.787 6.821-12.369 9.961-4.466 46.492-25.348 52.511-1.919 1.081 4.205.75 21.72-22.453 21.686Z"/></g><g><path class="d" d="M690.548 286.429c.628 3.96 3.664 6.089-7.466 33.53-4.222 10.415-12.788 5.443-12.16.1s7.641-26.256 10.048-31.123c2.6-5.283 9.055-5.824 9.578-2.507Z"/><path class="ag" d="M679.105 324.424c-8.06 4.012-39.5 1.692-39.584-.332-.1-2.355 27.738-7.641 33.67-8.286 7.083-.785 10.731 6.211 5.914 8.618Z"/><path class="ag" d="M645.086 322.784c-.209-.715-5.81-.628-7.641-.122a13.261 13.261 0 0 0-4.71 3.105 22.36 22.36 0 0 0-1.186 2.931s.715.907 1.762-.488 3.664-2.879 4.309-2.46c1.431.959-1.866 1.675-2.25 2.233-.4.576-.227.942-.227.942s3.4-.68 3.943-.715a8.963 8.963 0 0 0 3.367-1.623c1.028-.838 2.929-2.739 2.633-3.803Z"/></g><g><path class="t" d="M727.01 351.429c5.077 5.949-5.7-20.917-7.729-27.686-.959-3.21 1.221-15.631 3.559-25.767 2.355-10.258-1.343-13.956-7.728-15.544-7.118-1.779-16.312-1.308-18.475-1.012-6.874.907-8.531 1.727-11.689 3.419-1.57.837-1.483 17.2-1.954 21.51-.454 4.309 1.814 6.908 4.5 8.688.768.506 2.373 3.192 2.338 9.543-.035 6.333-.959 9.752-3.507 13.328.001.001 26.257-3.419 40.685 13.521Z"/><path class="x" d="m713.211 282.136-16.242 19.207-7.17-18.876"/></g><g><path class="d" d="M721.044 285.293c2.948 2.722 6.7 8.287 14.864 36.758 3.088 10.8-3.978 10.485-6.769 5.879s-14.619-25.505-15.771-30.826c-2.006-9.229 5.233-14.079 7.676-11.811Z"/><path class="ag" d="M734.511 330.878c-8.356 4.2-42.55-.3-42.654-2.39-.122-2.46 29.169-4.675 35.327-5.373 7.327-.837 12.299 5.251 7.327 7.763Z"/><path class="ag" d="M696.515 328.908c.035.75-5.3 2.46-7.2 2.564a13.394 13.394 0 0 1-5.461-1.431 21.21 21.21 0 0 1-2.058-2.39s.384-1.1 1.814-.1 4.4 1.553 4.867.942c1.047-1.361-2.3-.977-2.861-1.4s-.523-.82-.523-.82 3.437-.453 3.96-.593a8.95 8.95 0 0 1 3.716.454c1.269.471 3.676 1.657 3.746 2.774Z"/></g><g transform="translate(686.885 249.502)"><path class="q" d="M19.347 18.136c2.791-.558 6.542-5.7 5.251-10.118S17.044-1.595 10.642.464.297 5.61 1.064 11.943c.61 5.024 16.346 21.441 27.18 20.83 4.362-.244 8.758-9.421 3.053-12.84a17.049 17.049 0 0 0-11.95-1.797Z"/><path class="i" d="M33.862 19.933c-5.757-5.286-14.358-1.954-14.358-1.954"/><path class="ah" d="M18.457 17.596s-.907 10.415 4.571 14.48L11.322 45.701 6.228 32.578s5.722-1.064 3.349-15h8.88Z"/><path class="ai" d="M18.405 19.62c-.017.192-.035.3-.035.3 0 1.919-3.908 9.264-9.316 9.874.977-2.111 1.6-5.792.523-12.194h8.9a13.938 13.938 0 0 0-.072 2.02Z"/><path class="ah" d="M18.388 18.45a1.165 1.165 0 0 0-.018.174c.157 1.43-5.548 7.135-10.049 7.659-2.024.227-5.024-5.6-5.53-7.571a32.291 32.291 0 0 1-.8-6.769c-.052-1.675.052-5.879 4.885-5.879 4.867 0 7.589 10.712 11.183 8.548.07-.157.68-1.413 2.233-.419 1.166.751-.579 3.471-1.904 4.257Z"/><path class="aj" d="m6.699 14.647-.488 3.786.959 1.134"/><g transform="translate(0 12.746)"><circle class="h" cx="2.966" cy="2.966" r="2.966"/><circle class="h" cx="2.966" cy="2.966" r="2.966" transform="translate(7.903)"/><path class="h" d="M5.931 2.966h1.971M13.817 2.809s4.763-2.931 6.8-1.361"/></g><circle class="ak" cx=".715" cy=".715" r=".715" transform="translate(3.454 14.979)"/><circle class="ak" cx=".715" cy=".715" r=".715" transform="translate(9.072 14.979)"/><path class="aj" d="M7.24 21.695a2.847 2.847 0 0 0 2.669-1.221"/></g><g><path class="d" d="M677.587 313.852h-51.761a4.1 4.1 0 0 1-3.855-2.722l-10.572-29.867a2.835 2.835 0 0 1 2.687-3.786h52.18a3.5 3.5 0 0 1 3.3 2.32l10.712 30.268a2.843 2.843 0 0 1-2.691 3.787Z"/><path class="d" d="M675.982 315.457h-51.761a4.1 4.1 0 0 1-3.856-2.721l-10.572-29.867a2.835 2.835 0 0 1 2.686-3.786h52.18a3.5 3.5 0 0 1 3.3 2.32l10.712 30.268a2.85 2.85 0 0 1-2.689 3.786Z"/><path class="h" d="M677.587 313.695h-51.761a4.1 4.1 0 0 1-3.855-2.721l-10.572-29.867a2.835 2.835 0 0 1 2.687-3.786h52.18a3.5 3.5 0 0 1 3.3 2.32l10.712 30.268a2.843 2.843 0 0 1-2.691 3.786Z"/><path class="m" d="M650.599 321.946h-15.387l4.833-20.446h15.387Z"/></g><g><path class="j" d="M609.532 266.592a3.033 3.033 0 0 0 2.739-3.245v-9.3a3.268 3.268 0 0 0-3.262-3.262h-21.162a3.269 3.269 0 0 0-3.262 3.262v9.3a3.269 3.269 0 0 0 3.262 3.262h12.4c3.035 0 4.675 4.885 4.675 4.885s1.016-4.902 4.61-4.902Z"/><g transform="translate(591.145 257.398)"><circle class="j" cx="1.221" cy="1.221" r="1.221"/><circle class="j" cx="1.221" cy="1.221" r="1.221" transform="translate(6.036 .07)"/><circle class="j" cx="1.221" cy="1.221" r="1.221" transform="translate(12.09 .07)"/></g></g><path class="s" d="M750.788 430.772H392.213a8.57 8.57 0 0 1-8.566-8.566v-125.5a8.57 8.57 0 0 1 8.566-8.566h169.78a29.452 29.452 0 0 1 17.219 5.548l31.681 22.732a29.492 29.492 0 0 0 17.219 5.548h122.659a8.57 8.57 0 0 1 8.566 8.566v91.694a8.54 8.54 0 0 1-8.549 8.544Z"/></g><g><path class="al" d="M557.927 432.76s3.018 6.263.942 8.531h-26.6s.157-4.4 6.559-5.077a19.01 19.01 0 0 0 9.246-3.454Z"/><path class="am" d="M532.056 442.879h27.128a.462.462 0 0 0 .453-.454v-.663a.462.462 0 0 0-.453-.454h-27.128a.462.462 0 0 0-.454.454v.663a.462.462 0 0 0 .454.454Z"/><path class="an" d="m544.844 436.616-.872-2.059a.82.82 0 0 0-1.134-.4.831.831 0 0 0-.4 1.012l.07.279M541.058 437.784l-.576-2.094a.837.837 0 0 0-1.064-.558.943.943 0 0 0-.593 1.064"/><path class="al" d="M518.955 432.76s3.018 6.263.942 8.531h-26.6s.157-4.4 6.56-5.077a19.009 19.009 0 0 0 9.246-3.454Z"/><path class="am" d="M493.101 442.879h27.128a.462.462 0 0 0 .454-.454v-.663a.462.462 0 0 0-.454-.454h-27.128a.462.462 0 0 0-.454.454v.663a.44.44 0 0 0 .454.454Z"/><path class="an" d="m505.871 436.616-.872-2.059a.82.82 0 0 0-1.134-.4.832.832 0 0 0-.4 1.012l.07.279M502.085 437.784l-.576-2.094a.837.837 0 0 0-1.064-.558.943.943 0 0 0-.593 1.064"/><path class="t" d="M551.403 295.83c.244 7.781 1.221 67.968 8.165 84.89 7.031 17.131-.157 51.988-.157 51.988-9.647 1.518-13.555-.174-13.555-.174s-13.206-73.83-20.5-113.03l-2.024-1.047s-.959 48.2 1.675 66.293c2.634 18.143-3.105 48.027-3.105 48.027a58.673 58.673 0 0 1-16.277 0s-1.779-34-4.553-61.6c-1.518-15.178-3.454-71.3-3.332-75Z"/><path class="t" d="M533.801 220.57c2.163 0 22.731 4.1 22.714 13.049-.017 9.8-10.432 42.1-9.577 48.028.854 5.914 6.438 13.747 3.873 14.881-6.926 3.036-30.024 5.443-53.122-.453 0 0 2.408-5.443-1.745-29.064-2.268-12.892-2.791-37.56-.854-40.125 1.937-2.582 13.572-5.234 17.829-6.019 4.239-.802 20.882-.297 20.882-.297Z"/><g><path class="e" d="M533.12 220.5c-.506 2.966-6.193 70.288 1.134 103.784a55.128 55.128 0 0 0 24.075-2.948s-6.909-42.1-7.345-49.109 4.955-43.125 1.692-45.114c-10.799-6.613-19.556-6.613-19.556-6.613ZM512.116 220.953s1.623 63.938 1.989 102.981c0 0-11.741 2.931-21.859-1.64 0 0 3.978-47.26 4.03-53.279s-3.071-41.643.349-43.457a46.234 46.234 0 0 1 15.491-4.605Z"/></g><g transform="translate(420.736 224.623)"><path class="e" d="M65.403 60.866C78.644 53.818 86.983-2.897 78.016.121a32.653 32.653 0 0 0-9.159 4.972c-7.2 6.071-14.375 30.617-16.451 38.153-11.845.611-31.786 5.216-34.839 6.036-3.193.855-2.652 13.032.733 13.1 1.514.015 39.357 1.829 47.103-1.516Z"/><path class="x" d="M74.667 47.883c.715-4.431-.7-11.706-.977-22.26"/><ellipse class="u" cx="2.704" cy="5.844" rx="2.704" ry="5.844" transform="translate(15.544 50.133)"/><path class="ah" d="M17.306 59.134c-1.4.471-7.432 1.448-9.264 1.047s-5.67-3.89-5.931-4.361C1.832 55.349 0 52.749 0 52.749s2.408-1.1 3.542.785c1.361 2.25 4.431 2.233 5.949 1.8.628-.175 1.954-1.4 1.552-2.355-.384-.96-3.122-.349-3.821-.663a2.669 2.669 0 0 1-1.308-1.884s3.856-.785 4.588-.942 5.74.14 8.147 2.582c1.466 1.515 1.204 6.208-1.343 7.062Z"/><path class="k" d="m120.322 75.813-24.214 6.786a2.242 2.242 0 0 1-2.757-1.553L83.093 44.48a2.242 2.242 0 0 1 1.552-2.756l24.215-6.786a2.241 2.241 0 0 1 2.756 1.553l10.258 36.566a2.242 2.242 0 0 1-1.552 2.756Z"/><path class="e" d="M145.968 56.134c9.979-9.264-1.466-52.633-16.5-54.5-1.535-.192-4.78.977-5.007 10.659-.209 9.176 4.2 27.826 5.443 32.9-9.456 4.693-24.284 17.55-27.006 19.051-2.739 1.518 1.378 9.7 4.292 8.409 1.549-.696 30.386-10.099 38.778-16.519Z"/><path class="x" d="M102.074 65.747a136.692 136.692 0 0 1 27.791-20.568 175.964 175.964 0 0 1-4.257-20.743"/><path class="ah" d="M104.028 72.725c-1.361.541-7.624 2.32-9.456 2.076s-5.094-2.46-5.391-2.861a37.45 37.45 0 0 1-1.343-3.873s1.291-.994 2.512.646c1.448 1.954 4.152 1.553 5.635 1.064.61-.209 1.866-1.064 1.448-1.9-.436-.855-2.931-.1-3.646-.332a2.379 2.379 0 0 1-1.4-1.64s3.611-.995 4.327-1.186a16.126 16.126 0 0 1 8.06 1.588c2.847 1.62 2.429 5.179-.746 6.418Z"/></g><g><path class="d" d="M509.572 250.436h-12.3a.7.7 0 0 1-.7-.7v-6.747a.7.7 0 0 1 .7-.7h12.3a.7.7 0 0 1 .7.7v6.751a.7.7 0 0 1-.7.696Z"/><path transform="translate(502.608 239.341)" style="fill:#96c3d2" d="M0 0h1.64v3.786H0z"/><path class="u" d="M498.229 243.877h2.966v3.559h-2.966zM502.137 243.877h6.368v.82h-6.368zM502.137 245.238h6.368v.82h-6.368zM502.137 246.616h6.368v.82h-6.368zM498.229 248.012h10.293v.82h-10.293z"/></g><g transform="translate(508.882 187.325)"><path class="ah" d="M20.592 19.114a18.924 18.924 0 0 0 3.664 14.044s-8.9 4.553-21 .454c0 0 7.135-2.46 4.082-14.218Z"/><path class="ai" d="M20.299 19.131v1.134s-.523 5.3-3.262 7.9c-2.128 2.024-8.688 4.1-10.834 3.07a17.443 17.443 0 0 0 1.116-11.828Z"/><path class="ah" d="M20.452 20.109s-2.826 4.78-4.082 5.251c-3.14 1.187-8.182 2.216-9.857 1.361-1.152-.593-1.2-.628-2.565-6.472-.959-4.17-.017-12.735.628-13.1.628-.366 14.026-1.274 14.707.122.681 1.376 1.221 10.64 1.169 12.838Z"/><path class="al" d="M20.366 16.916s-2.494.174-1.8-4.1c.628-3.786-.384-4.571-5.478-3.14-4.135 1.169-10.206.942-12.456-2.46-1.274-1.937-.558-2.425 1.5-3.7C4.714 1.928 9.808-1.003 16.175.341c5.094 1.082 5.356 5.356 5.356 5.356a3.074 3.074 0 0 1 3.734 2.512c.872 4.03-4.815 11.95-4.815 11.95Z"/><path class="ap" d="M14.591 8.943c-2.948 1.832-10.554 3.053-12.945.663M21.395 5.873a2.894 2.894 0 0 1 3.28-.366"/><path class="al" d="M18.534 14.264c-.524 2.826-2.216 8.827-5.182 6.629-2.6-1.919-6.368-2.879-9.438-.82a25.589 25.589 0 0 1 0 6.245c-.576 3.524 12.473 1.971 14.55-1.413s1.622-6.141 1.919-7.99-1.849-2.651-1.849-2.651Z"/><path class="ah" d="M20.226 16.916s1.343-1.553 2.582-.488c.925.8-2.338 3.8-2.338 3.8Z"/><circle class="ak" cx=".907" cy=".907" r=".907" transform="translate(4.176 14.003)"/><circle class="ak" cx=".907" cy=".907" r=".907" transform="translate(11.695 14.003)"/><path class="aj" d="m8.555 14.107-1.256 4.327h2.093"/><path d="M2967.7 1191.4a2.451 2.451 0 0 0 2.756-1.4" transform="translate(-2959.128 -1169.089)" style="stroke-linejoin:round;stroke-linecap:round;stroke:#fff;stroke-miterlimit:10;stroke-width:2px;fill:none"/></g></g><g><path class="q" d="M371.259 432.254c-1.919.1-4.344 4.431-2.407 10.624h.994s.209-4.047 2.076-4.1c2.146-.052 3.193 4.1 5.147 4.1h9.63a2.8 2.8 0 0 0-2.669-2.425c-5.478-.715-6.141-7.048-6.141-7.048Z"/><path class="ah" d="M390.729 402.771s-13.921 21.04-12.735 31.4c.541 4.71-5.984 1.221-7.467-3.21-3.786-11.3-3.35-24.651-3.35-24.651a170.836 170.836 0 0 0 23.552-3.539Z"/><path class="ai" d="M390.729 402.771s-.576.872-1.483 2.355a132.589 132.589 0 0 1-22.068 3.995c-.035-1.762 0-2.809 0-2.809a170.841 170.841 0 0 0 23.551-3.541Z"/><path class="q" d="M330.786 429.986c-1.9-.262-5.112 3.524-4.4 9.979l.977.192s.977-3.943 2.809-3.629c2.111.349 2.355 4.623 4.274 5.007 2.2.418 9.456 1.116 9.456 1.116a2.8 2.8 0 0 0-2.163-2.9c-5.234-1.745-4.693-7.362-4.693-7.362Z"/><path class="ah" d="M353.693 406.521s-15.841 16.224-16.661 26.622c-.366 4.71-6.106.07-6.716-4.571-1.57-11.811 1.413-25.313 1.413-25.313a87.518 87.518 0 0 0 21.964 3.262Z"/><path class="ai" d="M331.729 403.259a87.7 87.7 0 0 0 21.964 3.262s-1.029 1.064-2.6 2.809a68.828 68.828 0 0 1-19.748-4.152c.227-1.219.384-1.919.384-1.919Z"/><g><path class="i" d="M407.215 339.025a7.111 7.111 0 0 1 7.048-7.17 7.111 7.111 0 0 1 7.048 7.17v103.853"/><path class="j" d="M422.795 442.879h-3.018c-.61 0-1.082-.436-.924-.872l.715-2.216a1.213 1.213 0 0 1 1.2-.7h1.047a1.238 1.238 0 0 1 1.2.7l.715 2.216c.128.436-.326.872-.935.872Z"/></g><path class="ah" d="M410.251 322.487a2.808 2.808 0 0 0 2.163 2.373c1.919.61 7.746 2.652 8.828 6.123.7 2.233 1.43 3.943 1.43 3.943a2.679 2.679 0 0 1-2.861-.7c-2.11-2.355-6.071-2.495-7.432-2.39-1.378.1-5.146-.768-6.96-5.74s4.832-3.609 4.832-3.609Z"/><g><path d="M1891.572 1462.1c9.822.4 23.08 6.542 28.209 32.117s12.4 35.99 12.4 35.99l-7.9 5.478s-14.323-5.268-18.806-11.985c0 0 3.646 17.6 8.025 34.542 7.066 27.372.733 49.58.733 49.58s-37.281 11.217-67.2.855c0 0-8.217-47.173-8.234-60.99-.052-46.697 15.806-87.101 52.773-85.587Z" transform="translate(-1518.288 -1206.364)" style="fill:#27284a"/><path class="x" d="M375.22 293.283s.052 13.067 13.241 26.325"/><g transform="translate(320.947 256.142)" style="opacity:.36"><circle class="d" cx="1.797" cy="1.797" r="1.797" transform="translate(78.644 65.892)"/><circle class="d" cx="1.797" cy="1.797" r="1.797" transform="translate(84.611 60.152)"/><circle class="d" cx="1.797" cy="1.797" r="1.797" transform="translate(30.652 11.671)"/><circle class="d" cx="1.797" cy="1.797" r="1.797" transform="translate(43.474 7.345)"/><circle class="d" cx="1.797" cy="1.797" r="1.797" transform="translate(42.305 21.144)"/><circle class="d" cx="1.797" cy="1.797" r="1.797" transform="translate(38.031 14.026)"/><circle class="d" cx="1.797" cy="1.797" r="1.797" transform="translate(37.56 2.128)"/><path class="d" d="M31.21 6.175a1.8 1.8 0 0 1-3.594.157 34.86 34.86 0 0 1 2.739-1.71 1.831 1.831 0 0 1 .855 1.553Z"/><circle class="d" cx="1.797" cy="1.797" r="1.797" transform="translate(49.563)"/><circle class="d" cx="1.797" cy="1.797" r="1.797" transform="translate(50.714 13.485)"/><circle class="d" cx="1.797" cy="1.797" r="1.797" transform="translate(55.965 6.176)"/><path class="d" d="M65.961 4.379a1.786 1.786 0 0 1-1.413.68 1.792 1.792 0 0 1-1.622-2.6 22.044 22.044 0 0 1 3.035 1.92Z"/><circle class="d" cx="1.797" cy="1.797" r="1.797" transform="translate(66.241 10.415)"/><circle class="d" cx="1.797" cy="1.797" r="1.797" transform="translate(60.152 15.841)"/><circle class="d" cx="1.797" cy="1.797" r="1.797" transform="translate(50.714 25.156)"/><circle class="d" cx="1.797" cy="1.797" r="1.797" transform="translate(42.305 33.216)"/><circle class="d" cx="1.797" cy="1.797" r="1.797" transform="translate(31.768 23.36)"/><circle class="d" cx="1.797" cy="1.797" r="1.797" transform="translate(22.243 14.026)"/><circle class="d" cx="1.797" cy="1.797" r="1.797" transform="translate(21.179 24.476)"/><circle class="d" cx="1.797" cy="1.797" r="1.797" transform="translate(27.616 33.652)"/><circle class="d" cx="1.797" cy="1.797" r="1.797" transform="translate(59.559 26.971)"/><circle class="d" cx="1.797" cy="1.797" r="1.797" transform="translate(68.038 19.452)"/><path class="d" d="M79.656 27.776a1.872 1.872 0 0 1-1.012.314 1.806 1.806 0 0 1 0-3.611h.087c.333 1.044.629 2.143.925 3.297Z"/><circle class="d" cx="1.797" cy="1.797" r="1.797" transform="translate(69.852 31.856)"/><circle class="d" cx="1.797" cy="1.797" r="1.797" transform="translate(58.355 37.264)"/><circle class="d" cx="1.797" cy="1.797" r="1.797" transform="translate(66.241 41.747)"/><circle class="d" cx="1.797" cy="1.797" r="1.797" transform="translate(77.388 37.264)"/><circle class="d" cx="1.797" cy="1.797" r="1.797" transform="translate(75.033 45.638)"/><circle class="d" cx="1.797" cy="1.797" r="1.797" transform="translate(60.902 47.434)"/><circle class="d" cx="1.797" cy="1.797" r="1.797" transform="translate(68.038 53.331)"/><circle class="d" cx="1.797" cy="1.797" r="1.797" transform="translate(81 51.534)"/><circle class="d" cx="1.797" cy="1.797" r="1.797" transform="translate(75.592 57.274)"/><circle class="d" cx="1.797" cy="1.797" r="1.797" transform="translate(66.241 59.419)"/><circle class="d" cx="1.797" cy="1.797" r="1.797" transform="translate(35.362 40.875)"/><circle class="d" cx="1.797" cy="1.797" r="1.797" transform="translate(19.382 35.467)"/><circle class="d" cx="1.797" cy="1.797" r="1.797" transform="translate(9.892 29.605)"/><path class="d" d="M16.277 20.499a1.794 1.794 0 0 1-1.8 1.8 1.73 1.73 0 0 1-1.064-.349q.942-1.57 1.937-3.036a1.848 1.848 0 0 1 .927 1.585Z"/><circle class="d" cx="1.797" cy="1.797" r="1.797" transform="translate(47.888 44.486)"/><circle class="d" cx="1.797" cy="1.797" r="1.797" transform="translate(39.863 52.023)"/><circle class="d" cx="1.797" cy="1.797" r="1.797" transform="translate(26.552 47.923)"/><circle class="d" cx="1.797" cy="1.797" r="1.797" transform="translate(11.689 42.672)"/><circle class="d" cx="1.797" cy="1.797" r="1.797" transform="translate(16.277 53.819)"/><circle class="d" cx="1.797" cy="1.797" r="1.797" transform="translate(3.524 50.208)"/><circle class="d" cx="1.797" cy="1.797" r="1.797" transform="translate(7.118 60.152)"/><circle class="d" cx="1.797" cy="1.797" r="1.797" transform="translate(26.552 60.152)"/><circle class="d" cx="1.797" cy="1.797" r="1.797" transform="translate(16.277 67.706)"/><circle class="d" cx="1.797" cy="1.797" r="1.797" transform="translate(37.176 65.892)"/><circle class="d" cx="1.797" cy="1.797" r="1.797" transform="translate(51.499 59.071)"/><circle class="d" cx="1.797" cy="1.797" r="1.797" transform="translate(60.902 64.095)"/><circle class="d" cx="1.797" cy="1.797" r="1.797" transform="translate(47.626 69.503)"/><circle class="d" cx="1.797" cy="1.797" r="1.797" transform="translate(28.837 73.358)"/><circle class="d" cx="1.797" cy="1.797" r="1.797" transform="translate(38.973 77.859)"/><circle class="d" cx="1.797" cy="1.797" r="1.797" transform="translate(20.446 77.092)"/><circle class="d" cx="1.797" cy="1.797" r="1.797" transform="translate(8.077 71.98)"/><path class="d" d="M2.721 70.218a1.809 1.809 0 0 1-1.8 1.814 1.874 1.874 0 0 1-.925-.244c.07-1.082.157-2.163.244-3.227a1.717 1.717 0 0 1 .663-.122 1.783 1.783 0 0 1 1.818 1.779Z"/><circle class="d" cx="1.797" cy="1.797" r="1.797" transform="translate(2.669 81.471)"/><circle class="d" cx="1.797" cy="1.797" r="1.797" transform="translate(13.817 86.146)"/><circle class="d" cx="1.797" cy="1.797" r="1.797" transform="translate(29.413 87.088)"/><circle class="d" cx="1.797" cy="1.797" r="1.797" transform="translate(22.243 93.962)"/><circle class="d" cx="1.797" cy="1.797" r="1.797" transform="translate(56.558 73.777)"/><circle class="d" cx="1.797" cy="1.797" r="1.797" transform="translate(47.103 85.431)"/><circle class="d" cx="1.797" cy="1.797" r="1.797" transform="translate(61.967 82.849)"/><circle class="d" cx="1.797" cy="1.797" r="1.797" transform="translate(55.965 93.316)"/><circle class="d" cx="1.797" cy="1.797" r="1.797" transform="translate(38.049 93.962)"/><circle class="d" cx="1.797" cy="1.797" r="1.797" transform="translate(46.091 101.516)"/><circle class="d" cx="1.797" cy="1.797" r="1.797" transform="translate(67.218 93.316)"/><circle class="d" cx="1.797" cy="1.797" r="1.797" transform="translate(59.088 105.406)"/><circle class="d" cx="1.797" cy="1.797" r="1.797" transform="translate(29.413 104.342)"/><circle class="d" cx="1.797" cy="1.797" r="1.797" transform="translate(12.665 97.503)"/><circle class="d" cx="1.797" cy="1.797" r="1.797" transform="translate(2.669 93.962)"/><circle class="d" cx="1.797" cy="1.797" r="1.797" transform="translate(6.577 107.203)"/><circle class="d" cx="1.797" cy="1.797" r="1.797" transform="translate(18.632 112.524)"/><circle class="d" cx="1.797" cy="1.797" r="1.797" transform="translate(38.049 111.651)"/><circle class="d" cx="1.797" cy="1.797" r="1.797" transform="translate(29.954 118.926)"/><circle class="d" cx="1.797" cy="1.797" r="1.797" transform="translate(10.869 117.112)"/><path class="d" d="M7.118 127.545a1.794 1.794 0 0 1-1.8 1.8 2.359 2.359 0 0 1-.331-.035c-.175-1.1-.349-2.216-.524-3.367a1.772 1.772 0 0 1 .855-.209 1.821 1.821 0 0 1 1.8 1.811Z"/><circle class="d" cx="1.797" cy="1.797" r="1.797" transform="translate(18.632 127.562)"/><circle class="d" cx="1.797" cy="1.797" r="1.797" transform="translate(10.869 133.929)"/><circle class="d" cx="1.797" cy="1.797" r="1.797" transform="translate(29.152 131.225)"/><circle class="d" cx="1.797" cy="1.797" r="1.797" transform="translate(20.446 140.262)"/><circle class="d" cx="1.797" cy="1.797" r="1.797" transform="translate(36.252 138.971)"/><circle class="d" cx="1.797" cy="1.797" r="1.797" transform="translate(50.714 116.135)"/><circle class="d" cx="1.797" cy="1.797" r="1.797" transform="translate(41.66 125.747)"/><circle class="d" cx="1.797" cy="1.797" r="1.797" transform="translate(60.902 120.217)"/><circle class="d" cx="1.797" cy="1.797" r="1.797" transform="translate(69.852 109.855)"/><path class="d" d="M77.563 124.928a81.126 81.126 0 0 1-.1 2.756 1.8 1.8 0 1 1-1.116-3.21 1.687 1.687 0 0 1 1.216.454Z"/><circle class="d" cx="1.797" cy="1.797" r="1.797" transform="translate(66.241 131.225)"/><circle class="d" cx="1.797" cy="1.797" r="1.797" transform="translate(52.528 131.225)"/><circle class="d" cx="1.797" cy="1.797" r="1.797" transform="translate(59.088 140.785)"/><circle class="d" cx="1.797" cy="1.797" r="1.797" transform="translate(46.091 142.076)"/><path class="d" d="M10.031 144.366a1.8 1.8 0 0 1-1.814 1.8 1.887 1.887 0 0 1-.454-.052c-.052-.314-.262-1.465-.558-3.227a1.872 1.872 0 0 1 1.012-.314 1.787 1.787 0 0 1 1.814 1.793Z"/><circle class="d" cx="1.797" cy="1.797" r="1.797" transform="translate(30.582 145.566)"/></g></g><g><path class="ah" d="M379.477 236.549c1.186 6.507 6.525 11.218 3.943 15.858-3.262 5.862-15.509 6.054-18.841 3.3-6.21-5.129-4.344-18.335 2.268-20.167a20.015 20.015 0 0 1 12.63 1.009Z"/><g transform="translate(373.616 239.954)"><ellipse class="c" cx=".855" cy="3.07" rx=".855" ry="3.07" transform="rotate(-10.07 6.252 -51.615)"/><circle class="al" cx=".837" cy=".837" r=".837" transform="translate(4.553 3.156)"/><path class="at" d="M3.018 8.965s2.006 1.5 5.6 0"/><path transform="translate(0 2.929)" style="stroke-linejoin:round;stroke-linecap:round;stroke-miterlimit:10;stroke-width:2px;stroke:#d7639f;fill:none" d="M0 2.285 10.956 0"/></g><path class="e" d="M372.29 238.905s10.153 1.919 12.264-2.547c2.111-4.448-5.583-5.652-5.583-5.652s.209-6.123-7.449-6.141c-7.344-.017-7.327 5.879-8.164 5.321-1.082-.7-3.3.209-3.7 1.6 0 0-5.338-2.111-7.955 2.058s.611 6.891.611 6.891a1.593 1.593 0 0 0-1.169 1.919c.349 1.5-5.373 3.629-3.158 7.641 2.216 4.03 7.345 2.966 7.345 2.966s-.035 4.92 5.46 4.623c5.478-.3 7.135-4.972 5.914-7.693s3.507.4 6.525-3.629c3.037-3.99-.941-7.357-.941-7.357Z"/><path class="at" d="M380.387 244.784a25.679 25.679 0 0 1-2.2 1.849"/></g></g><g transform="translate(166.907 265.936)"><path class="ah" d="M89.404 69.216c.785 1.657-27.756 3.943-35.5 1.361-6.49-2.181-16.312-33.373-15.091-36.217 1.186-2.791 6.228-4.2 8.775.488 1.9 3.524 7.938 19.347 10.537 27.738 0 .001 29.954 3.804 31.279 6.63Z"/><path class="ah" d="M85.968 68.449c.4-1.151 4.675-.558 6.4-.436a18.44 18.44 0 0 1 4.885 1.2 5.453 5.453 0 0 1 1.762 2.425s-.192.262-1.587-.453a7.166 7.166 0 0 0-4.693-.052c-1.291.855 1.675.994 2.041 1.518s.192.855.192.855-3.088-.1-3.559-.139a8.461 8.461 0 0 1-3.053-1.483c-.941-.735-2.859-2.092-2.388-3.435Z"/><path class="q" d="M62.591 108.747c-10.031.192-12.439.244-18.649.262-.942 0-1.849-.035-2.7-.1-5.234.07-9.735.087-13.555.1-17.969.035-20.8-11.549-20.638-17.306-.122-7.083 6.594-17.812 8.426-23.935.872-2.913-1.9-14.166-4.013-23.342-2.146-9.3 1.221-12.648 7-14.1a55.894 55.894 0 0 1 16.748-.925c6.228.82 7.292 1.465 10.153 3 1.431.768 1.779 15.683 2.2 19.591s-1.64 6.263-4.082 7.868c-.7.454-2.687 2.931-2.128 8.653.279 2.826 2.041 7.2 3.524 11.078 9.822 2.3 20.184 7.676 24.738 9.717 9.758 4.401 6.34 19.177-7.024 19.439Z"/><path class="ah" d="M78.85 153.948c.89 6.385 3.733 7.118 3.489 7.222-6.594 3.105-7.85-4.605-8.566-5.931-2.966-5.443-8.775-19.7-12.282-32.885-2.861-10.729-.558-18.073 1.308-23.743 2.181-6.612 10.869-12.439 12.386-1.849.769 5.356-1.482 20.394 3.665 57.186Z"/><path class="al" d="M71.576 164.276s-2.652-9.176.89-10.589c1.134-.454 2.512.68 2.879 4.553.314 3.385 5.251 3.908 5.722 1.71 0 0 6.053 1.221 6.053 4.309H71.576Z"/><path class="ah" d="M60.027 99.693c-1.465 7.327-2.721 9.386-6.263 21.179-1.291 4.274-6.926 22.871-9.456 34.246-.645 2.879 8.147 7.781-3.855 6.472-.663-.07.785-4.658.227-8.5a223.943 223.943 0 0 1-1.884-35.641c.454-11.3 7.31-18.283 11.3-22.871 4.156-4.759 12.251-6.507 9.931 5.115Z"/><path class="al" d="M40.784 155.083c-.942 0-2.6 1.71-2.46 4.431a16.107 16.107 0 0 0 .994 4.745h10.59c-.192-2.931-3.315-4.309-3.315-4.309-2.739-.436-6.28 2.164-5.9-1.884Z"/><path class="ah" d="M44.815 65.574a6.8 6.8 0 0 1 2.652 1.2 5.043 5.043 0 0 1 .646 1.919c0 .14-.122.82-.122.82a.5.5 0 0 1-.558-.523c.018-.663-.645-1.1-1.064-1.256-.174-.07-.349-.244-.4 0s.419.523.541.7a.651.651 0 0 1 .035.576s-1.012-.279-1.2-.366a6.061 6.061 0 0 1-1.588-1.954c-.373-.841.152-1.434 1.058-1.116Z"/><path class="ah" d="M37.156 51.701c-2.058.628-1.971 6.036.262 10.781 2.233 4.763 7.955 5.077 7.955 4.5 0-1.012-2.181-5.007-2.547-6.019-1.57-4.308-2.268-10.291-5.67-9.262Z"/><path class="u" d="M30.72 70.385c.75-1.343 1.8-2.355 10.607-2.041 10.206.366 15.754 9.525 14.009 13.206-.558 1.169-2.634.279-13.346-1.064-6.298-.785-14.568-4.1-11.27-10.101Z"/><path class="av" d="M53.817 80.256c.314 1.919 1.134 3.472 2.024 3.4.925-.07 1.814-1.745 2.111-3.681.262-1.71-.1-3.576-3.175-4.082-1.327-.205-1.308 2.29-.96 4.363Z"/><path class="e" d="M38.465 51.282c1.151 1.274 3.542 7.606 2.861 20.167-.541 10-4.71 10.816-6 10.9-7.449.488-11.1-4.292-11.654-8.165-1.5-10.293-.1-19.452 6.141-23.831 2.145-1.496 7.256-.606 8.652.929Z"/><path class="al" d="M29.672 45.193s7.9 1.116 9.4-2.408c1.186-2.756-7.728-6.734-11.1-.035 0 0-2.791.576-2.565 4.047a3.97 3.97 0 0 0 3.629 3.733l-.192-1.814c.025.001 1.491-.348.828-3.523Z"/><path class="ah" d="M38.603 51.334c-3.489 4.152-8.653-.017-9.438-.715-.174-.018-2.024-.174-1.849-1.134.157-.872 1.326-.82 1.6-.785.244-.087 1.343-.663.768-3.506 0 0 6 .855 8.548-1.274 1.505 2.338 1.994 5.478.371 7.414ZM35.604 66.86a17.781 17.781 0 0 0 2.844 2.477 4.429 4.429 0 0 0 1.989-.174c.122-.07.733-.488.733-.488a.559.559 0 0 0-.768-.314 1.618 1.618 0 0 1-1.71-.454c-.14-.14-.3-.506-.087-.663.227-.157.785.349 1.012.384a.659.659 0 0 0 .576-.244s-.925-.768-1.1-.925a6.36 6.36 0 0 0-2.634-.628c-.977.052-1.57.279-.855 1.029Z"/><path class="ah" d="M28.852 52.625c-2.163 0-4.763 7.536-2.512 12.3s12.072 2.809 12.072 2.216c0-1.012-6.821-3.611-6.839-4.693-.051-1.065 1.048-9.823-2.721-9.823Z"/><g><path class="e" d="M24.91 72.252c.75-1.343.4-2.53 12.683-2.041 10.205.419 13.695 9.525 11.95 13.206-.558 1.169-2.477-2.826-13.538-1.064-6.281 1.011-14.41-4.083-11.095-10.101Z"/><path class="av" d="M51.898 80.765c-.75 1.936-1.919 3.384-2.826 3.123-.96-.262-1.518-2.215-1.413-4.292.087-1.832.872-3.716 4.187-3.576 1.413.069.837 2.669.052 4.745Z"/></g><g><path class="ah" d="M36.737 71.729c0 1.361-27.058 2.844-34.647-.977a3.177 3.177 0 0 1-1.657-1.657v-.017c-.576-1.291-.646-3.332.209-6.333 7.4-25.8 10.049-27.494 12.718-29.971 2.216-2.059 7.467.82 6.368 6.036-.785 3.768-6.263 16.94-9.839 24.528 6.993 1.151 26.848 6.297 26.848 8.391Z"/><path class="ah" d="M48.077 73.752a.909.909 0 0 1-1.116.157c-.454-.244-1.291-.89-1.867-1.134a86.218 86.218 0 0 1 1.466 1.727 4.6 4.6 0 0 1-2.25.611c-.663.017-1.71-.89-2.669-1.378-.959-.506-2.338.384-3.943.663s-3.437-1.9-3.437-1.9l.349-2.146a38.066 38.066 0 0 1 8.915.942 8.278 8.278 0 0 1 2.6.8 17.412 17.412 0 0 1 1.952 1.658Z"/><path class="aw" d="M45.827 74.554a16.29 16.29 0 0 0-2.634-2.25l-2.285-.68M44.779 74.921a13 13 0 0 0-2.355-2.006l-2.285-.68"/></g><g><path class="g" d="M106.066 108.311H89.894a10.156 10.156 0 0 1-9.891-12.439l3.262-11.531a2.2 2.2 0 0 1 2.163-1.71h25.121a2.238 2.238 0 0 1 2.163 1.71l3.262 11.531a10.175 10.175 0 0 1-9.908 12.439Z"/><path class="f" d="M107.776 80.958a8.609 8.609 0 0 1-.157 1.657h-19.26a8.734 8.734 0 0 1-.157-1.657 9.8 9.8 0 0 1 19.574 0Z"/><path class="g" d="M112.155 83.331a14.19 14.19 0 0 1-28.349 0 2.212 2.212 0 0 1 1.622-.7h25.122a2.2 2.2 0 0 1 1.605.7Z"/><path class="g" d="M97.012 94.651h1.954v4.606h-1.954z"/></g><g><path class="al" d="M35.9 1.51c-1.465.174-5.757-3.873-11.549.61-5.774 4.484-8.042 12.055-8.583 13.346-.14.331 2.652 10.118 16.015 11.619 12.107 1.361 15.841-1.727 15.841-1.727s-3.123-6.106-2.442-12.247C45.791 7.454 44.727.446 35.9 1.51Z"/><path class="ap" d="M49.054 24.555s-3.576-5.321-2.774-11.444C47.117 6.796 44.361.166 35.411 1.998"/><path class="ah" d="M25.852 14.978s2.146 10.677-4.728 14.881c0 0 10.049 7.676 18.737.61 0 0-6.507-2.181-5.67-15.492Z"/><path class="ai" d="M25.852 14.978s.07.366.14.977c.052.209.087.332.087.332 0 1.308 2.844 9.124 9.351 9.089.017 0-.628-2.093-.628-2.093a26.2 26.2 0 0 1-.61-8.287h-8.34Z"/><path class="ah" d="M40.121 15.152c-.262 1.832-2.442 7.362-4.292 7.327-4.1-.052-9.77-4.693-9.752-5.984-1.239-.3-3.646-3.175-2.582-4.012 1.291-1.029 2.058-.035 2.163.122h.035c5.513-.174 4.414-8.217 9-8.217 4.274 0 5.426 3.07 5.53 4.588a28.723 28.723 0 0 1-.102 6.176Z"/></g><circle class="ak" cx=".698" cy=".698" r=".698" transform="translate(32.795 10.599)"/><circle class="ak" cx=".698" cy=".698" r=".698" transform="translate(38.168 10.826)"/><path class="aj" d="m36.65 11.663.576 2.913"/><circle class="ak" cx=".488" cy=".488" r=".488" transform="translate(33.457 46.432)"/><circle class="ak" cx=".488" cy=".488" r=".488" transform="translate(37.609 45.49)"/><path class="aj" d="M33.492 16.251a4.188 4.188 0 0 0 3.454.733M36.598 47.007s1.012-.209.8 1.012M35.028 48.927a2.054 2.054 0 0 0 1.971.366"/></g></svg>